<svg width="450" height="350" viewBox="0 0 450 350" fill="none" xmlns="http://www.w3.org/2000/svg">
<g clip-path="url(#clip0_1795_86671)">
<rect width="450" height="350" fill="white"/>
<path fill-rule="evenodd" clip-rule="evenodd" d="M309.393 108.63L312.719 111.694C312.695 111.694 312.671 111.718 312.648 111.718C301.434 116.541 285.398 122.172 270.953 126.495L244.464 114.07C245.509 112.954 245.224 111.671 243.561 110.91C241.447 109.936 237.931 110.127 235.721 111.362C233.512 112.597 233.417 114.379 235.531 115.353C237.194 116.137 239.736 116.161 241.827 115.543L267.508 127.588C263.588 128.871 259.859 130.344 256.461 132.055L248.645 128.42C249.69 127.303 249.382 126.044 247.719 125.26C245.604 124.286 242.088 124.476 239.879 125.711C237.669 126.947 237.574 128.729 239.689 129.703C241.352 130.487 243.894 130.51 245.984 129.893L253.729 133.48C250.546 135.191 247.552 136.973 244.701 138.849L236.6 135.095C237.645 133.979 237.337 132.72 235.674 131.936C233.559 130.962 230.043 131.152 227.834 132.387C225.624 133.623 225.529 135.404 227.644 136.378C229.307 137.162 231.849 137.186 233.939 136.569L242.326 140.465C233.274 146.737 226.052 153.769 220.873 161.347C216.905 167.144 215.337 171.468 213.912 177.74C213.888 177.883 213.84 178.002 213.817 178.12L205.407 213.519C174.617 212.664 150.194 211.975 150.194 211.975C149.981 211.975 149.743 211.951 149.529 211.951C119.31 210.929 89.3518 217.13 65.1667 229.436C14.9198 254.999 5.41685 299.236 43.9989 328.077C64.1214 343.116 101.278 350.124 122.185 350.053C141.285 349.981 163.285 346.584 175.092 343.092C183.954 340.478 197.187 337.247 207.925 331.878L207.83 325.511C209.303 324.893 214.482 321.686 216.24 320.546C228.333 312.563 236.719 305.793 242.54 291.966C248.621 277.498 251.306 245.829 251.306 245.829C267.223 246.589 282.856 247.349 295.661 247.943L301.529 253.336C311.769 253.811 320.393 253.978 324.859 254.12C351.942 255.023 372.136 250.842 391.688 240.911C401.952 235.684 412.334 227.061 426.541 218.912C427.087 218.603 427.633 218.27 428.156 217.938L425.273 192.399L416.423 171.437L389.788 182.634L393.898 186.411C393.28 186.649 392.948 186.768 392.948 186.768C372.302 196.841 353.368 216.37 326.166 216.37C317.28 216.37 289.912 215.728 259.336 214.944L266.748 184.368C268.483 180.71 270.146 176.766 270.811 175.151C271.5 173.511 272.236 172.038 272.973 171.017C276.988 165.339 281.834 161.157 289.888 157.071C307.207 148.257 321.533 149.968 342.392 143.007C342.392 143.007 343.532 142.603 345.504 141.866C347.476 141.13 340.492 117.866 340.492 117.866L309.393 108.63ZM100.732 259.965L94.3646 256.757C78.2333 266.474 71.9613 280.206 76.6653 292.441L100.541 280.372L100.732 259.965ZM106.338 281.56L78.257 295.743C78.8272 296.765 79.4925 297.763 80.2527 298.737L112.278 282.534L112.468 257.422L102.656 252.505C101.254 253.122 99.9 253.764 98.5696 254.429C98.4746 254.477 98.3795 254.548 98.2607 254.595L106.505 258.729H106.552V258.753L106.338 281.56ZM118.027 283.722L82.6759 301.611C83.5074 302.49 84.3865 303.322 85.3605 304.153L124.251 284.506L124.441 255.118L112.301 249.036C110.591 249.535 108.88 250.105 107.217 250.699L118.193 256.187H118.241V256.211L118.027 283.722ZM188.919 291.419C193.124 282.629 192.483 266.807 193.124 264.858L197.329 247.373C168.369 246.019 142.307 245.259 142.307 245.259C133.921 244.997 125.606 245.805 117.742 247.587L130.214 253.835H130.262V253.859L130.048 285.67L88.5915 306.6C108.429 320.546 143.946 321.948 169.581 309.879L144.184 311.328L125.653 302.704C123.562 303.322 121.02 303.298 119.357 302.514C117.243 301.54 117.338 299.758 119.547 298.523C121.757 297.287 125.273 297.097 127.387 298.071C129.05 298.855 129.359 300.115 128.314 301.231L144.659 308.834L174.76 307.123C176.684 305.935 178.395 304.676 179.939 303.322L156.229 304.676L137.698 296.052C135.607 296.67 133.065 296.646 131.402 295.862C129.288 294.888 129.383 293.106 131.592 291.871C133.802 290.635 137.318 290.445 139.432 291.419C141.095 292.203 141.404 293.463 140.359 294.579L156.704 302.182L182.647 300.708C183.74 299.521 184.738 298.285 185.641 297.026L168.298 298.024L149.767 289.4C147.676 290.018 145.134 289.994 143.471 289.21C141.357 288.236 141.452 286.454 143.661 285.219C145.871 283.983 149.387 283.793 151.501 284.767C153.164 285.551 153.473 286.81 152.428 287.927L168.773 295.529L187.304 294.484C187.898 293.462 188.42 292.441 188.919 291.419ZM214.387 177.479C215.504 176.481 217.19 175.531 219.59 175.008L214.387 177.479Z" fill="black"/>
<path d="M179.305 192.997C179.026 197.045 172.569 197.848 172.569 197.848C172.569 197.848 168.695 198.616 164.89 197.115C161.086 195.615 161.225 193.241 161.225 193.241V192.194L179.305 191.88V192.997Z" fill="#DFEDE8" stroke="#010101" stroke-width="0.349032" stroke-miterlimit="10" stroke-linecap="round" stroke-linejoin="round"/>
<path d="M163.843 188.528C167.334 186.574 173.058 186.469 176.618 188.354C180.178 190.239 180.213 193.345 176.723 195.3C173.232 197.254 167.508 197.359 163.948 195.474C160.388 193.624 160.318 190.483 163.843 188.528Z" fill="white" stroke="#010101" stroke-width="0.349032" stroke-miterlimit="10" stroke-linecap="round" stroke-linejoin="round"/>
<path d="M174.489 192.019C174.349 193.903 171.383 194.253 171.383 194.253C171.383 194.253 169.602 194.602 167.822 193.903C166.077 193.205 166.112 192.088 166.112 192.088L166.077 189.192L174.454 189.087L174.489 192.019Z" fill="#DFEDE8"/>
<path d="M174.489 192.019C174.349 193.903 171.383 194.253 171.383 194.253C171.383 194.253 169.602 194.602 167.822 193.903C166.077 193.205 166.112 192.088 166.112 192.088L166.077 189.192L174.454 189.087L174.489 192.019Z" stroke="#010101" stroke-width="0.349032" stroke-miterlimit="10" stroke-linecap="round" stroke-linejoin="round"/>
<path d="M167.264 187.587C168.869 186.679 171.522 186.645 173.197 187.517C174.838 188.39 174.872 189.82 173.232 190.728C171.626 191.635 168.974 191.67 167.299 190.798C165.658 189.96 165.658 188.529 167.264 187.587Z" fill="white"/>
<path d="M167.264 187.587C168.869 186.679 171.522 186.645 173.197 187.517C174.838 188.39 174.872 189.82 173.232 190.728C171.626 191.635 168.974 191.67 167.299 190.798C165.658 189.96 165.658 188.529 167.264 187.587Z" stroke="#010101" stroke-width="0.349032" stroke-miterlimit="10" stroke-linecap="round" stroke-linejoin="round"/>
<path d="M171.103 184.411C171.068 189.297 170.51 189.367 170.51 189.367C170.51 189.367 170.161 189.437 169.847 189.297C169.532 189.158 169.532 184.411 169.532 184.411V141.899L171.103 141.864V184.411Z" fill="white" stroke="#010101" stroke-width="0.349032" stroke-miterlimit="10" stroke-linecap="round" stroke-linejoin="round"/>
<path d="M169.777 146.156C170.091 145.982 170.58 145.982 170.894 146.156C171.208 146.331 171.208 146.575 170.894 146.749C170.58 146.924 170.091 146.924 169.777 146.749C169.463 146.61 169.463 146.331 169.777 146.156Z" fill="#DFEDE8" stroke="#010101" stroke-width="0.349032" stroke-miterlimit="10" stroke-linecap="round" stroke-linejoin="round"/>
<path d="M176.722 102.703C176.513 102.598 176.269 102.598 176.024 102.738L161.609 109.928C160.981 110.242 160.458 111.184 160.458 112.022V160.712C160.458 161.201 160.632 161.55 160.911 161.689L162.971 162.737L176.024 154.499C176.653 154.185 177.176 153.243 177.176 152.405L178.782 103.75L176.722 102.703Z" fill="white" stroke="#010101" stroke-width="0.349032" stroke-miterlimit="10" stroke-linecap="round" stroke-linejoin="round"/>
<path d="M160.807 110.765C160.597 111.149 160.458 111.603 160.458 112.022V160.711C160.458 161.2 160.632 161.549 160.911 161.689L162.971 162.736L174.489 116.315" fill="url(#paint0_linear_1795_86671)"/>
<path d="M160.807 110.765C160.597 111.149 160.458 111.603 160.458 112.022V160.711C160.458 161.2 160.632 161.549 160.911 161.689L162.971 162.736L174.489 116.315" stroke="#010101" stroke-width="0.349032" stroke-miterlimit="10" stroke-linecap="round" stroke-linejoin="round"/>
<path d="M178.084 155.511L163.669 162.701C163.04 163.015 162.517 162.596 162.517 161.723V113.034C162.517 112.196 163.04 111.253 163.669 110.939L178.084 103.749C178.712 103.435 179.235 103.854 179.235 104.727V153.417C179.235 154.254 178.712 155.197 178.084 155.511Z" fill="white" stroke="#010101" stroke-width="0.349032" stroke-miterlimit="10" stroke-linecap="round" stroke-linejoin="round"/>
<path d="M174.799 118.664C176.05 115.615 175.576 112.531 173.739 111.778C171.902 111.024 169.398 112.885 168.147 115.935C166.896 118.985 167.37 122.068 169.207 122.822C171.044 123.575 173.548 121.714 174.799 118.664Z" fill="#010101" stroke="#010101" stroke-width="0.349032" stroke-miterlimit="10" stroke-linecap="round" stroke-linejoin="round"/>
<path d="M173.023 111.463C173.686 112.091 174.07 113.138 174.07 114.534C174.07 117.466 172.255 120.747 170.056 121.864C169.428 122.178 168.834 122.283 168.311 122.178C169.044 122.876 170.091 123.051 171.277 122.457C173.511 121.375 175.291 118.094 175.291 115.128C175.291 113.034 174.384 111.672 173.023 111.463Z" fill="#FEE091" stroke="#010101" stroke-width="0.349032" stroke-miterlimit="10" stroke-linecap="round" stroke-linejoin="round"/>
<path d="M172.499 112.3C171.976 112.091 171.347 112.126 170.649 112.475C168.834 113.382 167.333 116.07 167.333 118.478C167.333 119.944 167.857 120.956 168.695 121.34C168.834 121.41 169.183 121.515 169.218 121.515C169.742 121.654 170.405 121.759 170.859 121.759C173.546 121.759 175.71 119.595 175.71 116.907C175.71 114.848 174.384 112.964 172.499 112.3Z" fill="#F58A6B" stroke="#010101" stroke-width="0.349032" stroke-miterlimit="10" stroke-linecap="round" stroke-linejoin="round"/>
<path d="M171.522 118.129C172.428 118.129 173.162 117.395 173.162 116.489C173.162 115.583 172.428 114.849 171.522 114.849C170.616 114.849 169.881 115.583 169.881 116.489C169.881 117.395 170.616 118.129 171.522 118.129Z" fill="white"/>
<path d="M174.82 134.323C176.071 131.273 175.596 128.19 173.759 127.436C171.922 126.683 169.419 128.544 168.167 131.594C166.916 134.643 167.391 137.727 169.228 138.48C171.065 139.234 173.569 137.373 174.82 134.323Z" fill="#010101" stroke="#010101" stroke-width="0.349032" stroke-miterlimit="10" stroke-linecap="round" stroke-linejoin="round"/>
<path d="M173.023 127.134C173.686 127.763 174.07 128.81 174.07 130.206C174.07 133.138 172.255 136.418 170.056 137.535C169.428 137.849 168.835 137.954 168.311 137.849C169.044 138.547 170.091 138.722 171.278 138.129C173.512 137.047 175.292 133.766 175.292 130.799C175.292 128.67 174.384 127.309 173.023 127.134Z" fill="#FEE091" stroke="#010101" stroke-width="0.349032" stroke-miterlimit="10" stroke-linecap="round" stroke-linejoin="round"/>
<path d="M172.499 127.972C171.976 127.762 171.347 127.797 170.649 128.146C168.834 129.054 167.334 131.741 167.334 134.15C167.334 135.616 167.857 136.628 168.695 137.012C168.834 137.082 169.183 137.186 169.218 137.186C169.742 137.326 170.405 137.431 170.859 137.431C173.546 137.431 175.71 135.267 175.71 132.579C175.71 130.485 174.384 128.635 172.499 127.972Z" fill="#FFCE49" stroke="#010101" stroke-width="0.349032" stroke-miterlimit="10" stroke-linecap="round" stroke-linejoin="round"/>
<path d="M171.522 133.766C172.428 133.766 173.163 133.032 173.163 132.126C173.163 131.22 172.428 130.485 171.522 130.485C170.616 130.485 169.882 131.22 169.882 132.126C169.882 133.032 170.616 133.766 171.522 133.766Z" fill="white"/>
<path d="M174.807 149.969C176.059 146.919 175.584 143.836 173.747 143.082C171.91 142.328 169.406 144.189 168.155 147.239C166.904 150.289 167.379 153.372 169.216 154.126C171.053 154.88 173.556 153.018 174.807 149.969Z" fill="#010101" stroke="#010101" stroke-width="0.349032" stroke-miterlimit="10" stroke-linecap="round" stroke-linejoin="round"/>
<path d="M173.023 142.771C173.686 143.399 174.07 144.446 174.07 145.842C174.07 148.774 172.255 152.055 170.056 153.172C169.428 153.486 168.834 153.591 168.311 153.486C169.044 154.184 170.091 154.359 171.278 153.765C173.511 152.683 175.291 149.403 175.291 146.436C175.291 144.342 174.384 142.98 173.023 142.771Z" fill="#FEE091" stroke="#010101" stroke-width="0.349032" stroke-miterlimit="10" stroke-linecap="round" stroke-linejoin="round"/>
<path d="M172.499 143.609C171.975 143.4 171.347 143.435 170.649 143.784C168.834 144.691 167.333 147.379 167.333 149.787C167.333 151.253 167.857 152.265 168.694 152.649C168.834 152.719 169.183 152.824 169.218 152.824C169.741 152.963 170.405 153.068 170.858 153.068C173.546 153.068 175.71 150.904 175.71 148.216C175.71 146.157 174.384 144.272 172.499 143.609Z" fill="#62C089" stroke="#010101" stroke-width="0.349032" stroke-miterlimit="10" stroke-linecap="round" stroke-linejoin="round"/>
<path d="M171.522 149.402C172.428 149.402 173.162 148.668 173.162 147.762C173.162 146.856 172.428 146.121 171.522 146.121C170.616 146.121 169.881 146.856 169.881 147.762C169.881 148.668 170.616 149.402 171.522 149.402Z" fill="white"/>
<path d="M202.128 325.345C203.601 324.656 203.577 324.632 205.026 323.92C224.317 314.108 237.717 301.516 242.373 287.808C245.652 278.139 246.127 261.176 246.222 259.062C246.412 254.881 245.129 247.397 242.373 240.198C278.508 241.957 313.289 243.596 324.811 243.976C351.895 244.879 372.088 240.697 391.641 230.767C401.904 225.54 412.856 216.631 427.039 208.482C423.41 201.716 425.013 189.045 416.888 170.04C404.796 176.905 392.971 177.004 392.971 177.004C372.326 187.077 353.391 206.32 326.189 206.32C302.717 206.32 150.147 201.901 150.147 201.901C149.933 201.901 149.695 201.878 149.482 201.878C119.262 200.856 89.304 207.057 65.119 219.363C14.8721 244.926 5.36914 289.162 43.9512 318.004C56.0912 327.079 71.5335 333.541 88.6151 337.39C99.8523 339.908 111.755 341.286 123.895 341.476C138.078 341.476 145.585 341.476 166.658 336.986C185.26 332.971 202.128 325.345 202.128 325.345ZM85.384 294.08C84.41 293.249 83.531 292.417 82.6994 291.538L118.05 273.649L118.264 246.138V246.114H118.217L107.241 240.626C108.904 240.032 110.614 239.462 112.325 238.963L124.465 245.045L124.275 274.433L85.384 294.08ZM94.3881 246.684L100.755 249.868L100.565 270.275L76.6889 282.344C71.9849 270.133 78.2806 256.401 94.3881 246.684ZM78.3043 285.67L106.386 271.487L106.599 248.68V248.656H106.552L98.3081 244.522C98.4269 244.475 98.5219 244.404 98.6169 244.356C99.9473 243.691 101.302 243.049 102.703 242.432L112.515 247.349L112.325 272.461L80.3 288.664C79.516 287.666 78.8745 286.692 78.3043 285.67ZM193.171 245.924C192.53 247.872 193.171 272.556 188.966 281.346C188.467 282.368 187.945 283.389 187.351 284.387L168.82 285.433L152.475 277.83C153.52 276.714 153.211 275.454 151.548 274.67C149.434 273.696 145.918 273.886 143.709 275.122C141.499 276.357 141.404 278.139 143.518 279.113C145.181 279.897 147.723 279.921 149.814 279.303L168.345 287.927L185.688 286.929C184.785 288.188 183.787 289.424 182.694 290.612L156.751 292.085L140.406 284.482C141.451 283.366 141.143 282.106 139.48 281.322C137.365 280.348 133.849 280.539 131.64 281.774C129.43 283.009 129.335 284.791 131.45 285.765C133.113 286.549 135.655 286.573 137.745 285.955L156.276 294.579L179.986 293.225C178.442 294.579 176.731 295.838 174.807 297.026L144.706 298.737L128.361 291.134C129.407 290.018 129.098 288.759 127.435 287.975C125.32 287 121.804 287.191 119.595 288.426C117.385 289.661 117.29 291.443 119.405 292.417C121.068 293.201 123.61 293.225 125.7 292.607L144.231 301.231L169.628 299.782C143.994 311.851 108.476 310.449 88.6388 296.504L130.095 275.573L130.309 243.762V243.738H130.262L117.789 237.49C125.653 235.708 133.968 234.901 142.354 235.162C142.354 235.162 166.492 236.374 197.424 237.918C195.381 240.816 193.932 243.596 193.171 245.924Z" fill="#BCCCC7" stroke="#010101" stroke-width="0.237574" stroke-miterlimit="10" stroke-linecap="round" stroke-linejoin="round"/>
<path d="M213.959 168.002C215.575 166.196 218.853 164.248 224.912 164.51C239.926 165.151 267.318 176.412 267.318 176.412C269.124 176.673 269.623 168.477 271.048 165.056C271.737 163.417 272.474 161.944 273.21 160.922C277.225 155.244 282.072 151.063 290.126 146.976C307.445 138.162 321.723 139.018 343.128 132.556C343.128 132.556 343.753 129.515 341.89 121.596C341.153 121.216 340.763 114.499 340.026 114.142C340.786 113.762 295.172 105.292 336.3 105.292C312.162 92.9378 342.059 96.0168 315.38 107.539C304.166 112.362 285.659 109.962 271.215 114.286L245.2 102.075C245.129 101.932 245.034 101.766 244.915 101.624C245.723 100.578 245.367 99.4141 243.822 98.6777C241.708 97.7036 238.192 97.8938 235.983 99.1292C234.272 100.079 233.821 101.362 234.676 102.336C233.868 103.382 234.224 104.569 235.769 105.282C237.432 106.066 239.974 106.09 242.064 105.472L265.085 116.258C262.139 117.327 259.312 118.491 256.699 119.822L249.358 116.401C249.287 116.258 249.192 116.116 249.073 115.973C249.881 114.928 249.524 113.764 247.98 113.027C245.866 112.053 242.349 112.243 240.14 113.478C238.43 114.429 237.978 115.712 238.833 116.686C238.026 117.731 238.382 118.919 239.926 119.632C241.589 120.416 244.131 120.439 246.222 119.822L251.829 122.435C249.429 123.789 247.125 125.191 244.915 126.617L237.289 123.077C237.218 122.934 237.123 122.792 237.004 122.649C237.812 121.604 237.455 120.439 235.911 119.703C233.797 118.729 230.281 118.919 228.071 120.154C226.361 121.105 225.909 122.388 226.765 123.362C225.957 124.407 226.313 125.595 227.857 126.307C229.52 127.091 232.062 127.115 234.153 126.498L240.686 129.539C232.49 135.478 225.886 142.059 221.063 149.115C217.095 154.911 215.527 159.235 214.102 165.507C214.078 165.65 214.031 165.769 214.007 165.887C214.221 165.65 214.435 165.436 214.696 165.198C214.482 165.982 214.292 166.814 214.102 167.669C214.007 167.741 213.983 167.859 213.959 168.002Z" fill="#DFEDE8" stroke="#010101" stroke-width="0.237574" stroke-miterlimit="10" stroke-linecap="round" stroke-linejoin="round"/>
<path d="M312.671 99.4858C301.458 104.309 285.422 109.939 270.977 114.263L244.488 101.838C245.533 100.721 245.248 99.4382 243.585 98.6779C241.47 97.7039 237.954 97.894 235.745 99.1294C233.535 100.365 233.44 102.147 235.555 103.121C237.218 103.905 239.76 103.928 241.85 103.311L267.532 115.356C263.612 116.639 259.882 118.111 256.485 119.822L248.669 116.187C249.714 115.071 249.405 113.811 247.742 113.028C245.628 112.053 242.112 112.243 239.902 113.479C237.693 114.714 237.598 116.496 239.712 117.47C241.375 118.254 243.917 118.278 246.008 117.66L253.753 121.247C250.569 122.958 247.576 124.74 244.725 126.617L236.624 122.863C237.669 121.746 237.36 120.487 235.697 119.703C233.583 118.729 230.067 118.919 227.857 120.155C225.648 121.39 225.553 123.172 227.667 124.146C229.33 124.93 231.872 124.954 233.963 124.336L242.349 128.232C233.298 134.504 226.076 141.536 220.897 149.115C216.929 154.912 215.361 159.236 213.936 165.507C213.912 165.65 213.864 165.769 213.841 165.888C215.456 164.082 218.735 162.134 224.793 162.395C239.807 163.037 267.2 174.298 267.2 174.298C269.005 174.559 269.504 166.363 270.93 162.942C271.619 161.302 272.355 159.83 273.091 158.808C277.106 153.13 281.953 148.949 290.007 144.862C307.326 136.048 321.652 137.759 342.511 130.798C342.511 130.798 325.454 119.729 340.492 112.745C316.259 100.367 339.351 87.9872 312.671 99.4858Z" fill="#DFEDE8" stroke="#010101" stroke-width="0.237574" stroke-miterlimit="10" stroke-linecap="round" stroke-linejoin="round"/>
<path d="M204.703 321.759C223.961 311.947 237.337 299.355 241.985 285.647C245.258 275.978 245.732 259.015 245.827 256.901C246.017 252.72 244.736 245.236 241.985 238.038C278.057 239.796 312.777 241.435 324.279 241.815C351.315 242.718 371.473 238.537 390.992 228.606C401.237 223.379 411.601 214.755 425.783 206.606C428.285 192.401 419.191 189.513 411.08 170.507C399.008 177.373 392.343 174.534 392.343 174.534C371.734 184.607 352.833 204.136 325.678 204.136C302.247 204.136 149.944 199.717 149.944 199.717C149.73 199.717 149.493 199.693 149.28 199.693C119.113 198.672 89.2072 204.872 65.0645 217.179C14.9054 242.741 5.41904 286.978 43.9336 315.819C64.0209 330.858 93.2389 338.769 123.714 339.292C161.967 341.43 203.257 322.495 204.703 321.759ZM85.2704 291.919C84.298 291.088 83.4205 290.256 82.5905 289.377L117.88 271.488L118.093 243.977V243.953H118.046L107.089 238.465C108.749 237.871 110.457 237.301 112.164 236.802L124.283 242.884L124.093 272.272L85.2704 291.919ZM94.2587 244.523L100.615 247.731L100.425 268.138L76.5904 280.207C71.8947 267.972 78.1794 254.24 94.2587 244.523ZM78.203 283.509L106.235 269.326L106.449 246.519V246.495H106.401L98.1718 242.361C98.2904 242.314 98.3852 242.243 98.4801 242.195C99.8082 241.53 101.16 240.888 102.559 240.271L112.354 245.189L112.164 270.3L80.1952 286.503C79.4126 285.529 78.7722 284.531 78.203 283.509ZM192.869 243.763C192.229 245.711 192.869 270.395 188.672 279.185C188.174 280.207 187.652 281.229 187.059 282.25L168.56 283.296L152.244 275.693C153.288 274.577 152.979 273.317 151.319 272.533C149.208 271.559 145.698 271.749 143.493 272.985C141.287 274.22 141.192 276.002 143.303 276.976C144.963 277.76 147.501 277.784 149.588 277.166L168.086 285.79L185.399 284.792C184.498 286.051 183.501 287.287 182.411 288.475L156.513 289.948L140.196 282.345C141.24 281.229 140.931 279.969 139.271 279.185C137.161 278.211 133.651 278.401 131.445 279.637C129.24 280.872 129.145 282.654 131.255 283.628C132.916 284.412 135.453 284.436 137.54 283.818L156.039 292.442L179.707 291.088C178.165 292.442 176.458 293.701 174.537 294.889L144.489 296.6L128.172 288.997C129.216 287.881 128.908 286.621 127.247 285.837C125.137 284.863 121.627 285.054 119.421 286.289C117.216 287.524 117.121 289.306 119.231 290.28C120.892 291.064 123.429 291.088 125.516 290.47L144.015 299.094L169.367 297.645C143.777 309.714 108.322 308.312 88.5194 294.366L129.904 273.436L130.117 241.625V241.601H130.07L117.619 235.353C125.469 233.571 133.769 232.763 142.141 233.025C142.141 233.025 166.236 234.237 197.114 235.781C195.075 238.655 193.628 241.435 192.869 243.763Z" fill="#DFEDE8"/>
<path d="M204.703 321.759C223.961 311.947 237.336 299.355 241.985 285.647C245.258 275.978 245.732 259.015 245.827 256.901C246.016 252.72 244.736 245.236 241.985 238.038C278.057 239.796 312.777 241.435 324.279 241.815C351.315 242.718 371.473 238.537 390.991 228.606C401.237 223.379 411.601 214.755 425.783 206.606C427.82 195.196 414.54 189.513 406.429 170.507C394.358 177.373 392.343 174.534 392.343 174.534C371.734 184.607 352.833 204.136 325.678 204.136C302.247 204.136 149.943 199.717 149.943 199.717C149.73 199.717 149.493 199.693 149.279 199.693C119.113 198.672 89.2072 204.872 65.0644 217.179C14.9054 242.741 5.41904 286.978 43.9336 315.819C64.0209 330.858 93.2389 338.769 123.714 339.292C161.967 341.43 203.257 322.495 204.703 321.759ZM85.2703 291.919C84.298 291.088 83.4205 290.256 82.5904 289.377L117.88 271.488L118.093 243.977V243.953H118.046L107.089 238.465C108.749 237.871 110.457 237.301 112.164 236.802L124.283 242.884L124.093 272.272L85.2703 291.919ZM94.2587 244.523L100.614 247.731L100.425 268.138L76.5904 280.207C71.8946 267.972 78.1793 254.24 94.2587 244.523ZM78.203 283.509L106.235 269.326L106.449 246.519V246.495H106.401L98.1718 242.361C98.2904 242.314 98.3852 242.243 98.4801 242.195C99.8082 241.53 101.16 240.888 102.559 240.271L112.354 245.189L112.164 270.3L80.1952 286.503C79.4126 285.529 78.7722 284.531 78.203 283.509ZM192.869 243.763C192.229 245.711 192.869 270.395 188.672 279.185C188.174 280.207 187.652 281.229 187.059 282.25L168.56 283.296L152.244 275.693C153.287 274.577 152.979 273.317 151.319 272.533C149.208 271.559 145.698 271.749 143.493 272.985C141.287 274.22 141.192 276.002 143.303 276.976C144.963 277.76 147.501 277.784 149.588 277.166L168.086 285.79L185.399 284.792C184.497 286.051 183.501 287.287 182.41 288.475L156.513 289.948L140.196 282.345C141.24 281.229 140.931 279.969 139.271 279.185C137.161 278.211 133.651 278.401 131.445 279.637C129.24 280.872 129.145 282.654 131.255 283.628C132.916 284.412 135.453 284.436 137.54 283.818L156.039 292.442L179.707 291.088C178.165 292.442 176.458 293.701 174.537 294.889L144.489 296.6L128.172 288.997C129.216 287.881 128.908 286.621 127.247 285.837C125.137 284.863 121.627 285.054 119.421 286.289C117.216 287.524 117.121 289.306 119.231 290.28C120.892 291.064 123.429 291.088 125.516 290.47L144.015 299.094L169.367 297.645C143.777 309.714 108.322 308.312 88.5194 294.366L129.904 273.436L130.117 241.625V241.601H130.07L117.619 235.353C125.469 233.571 133.769 232.763 142.141 233.025C142.141 233.025 166.236 234.237 197.114 235.781C195.075 238.655 193.628 241.435 192.869 243.763Z" stroke="#010101" stroke-width="0.237574" stroke-miterlimit="10" stroke-linecap="round" stroke-linejoin="round"/>
<path d="M294.188 204.135L159.484 200.191L154.59 233.665L291.623 240.389L294.188 204.135Z" fill="url(#paint1_linear_1795_86671)"/>
<path d="M426.849 207.175L424.735 187.694C423.951 178.524 418.416 169.33 413.07 164.364L406.941 158.663C401.595 153.697 397.937 155.622 396.654 160.468L392.971 174.556L426.849 207.175Z" fill="#010101" stroke="#010101" stroke-width="0.237574" stroke-miterlimit="10" stroke-linecap="round" stroke-linejoin="round"/>
<path d="M426.232 201.355L424.735 187.694C423.951 178.524 418.416 169.33 413.07 164.364L411.573 162.963L392.971 174.533L391.546 175.507L422.692 208.221L426.469 206.629C426.541 205.441 426.113 204.229 426.232 201.355Z" fill="#DFEDE8"/>
<path d="M426.232 201.355L424.735 187.694C423.951 178.524 418.416 169.33 413.07 164.364L411.573 162.963L392.971 174.533L391.546 175.507L422.692 208.221L426.469 206.629C426.541 205.441 426.113 204.229 426.232 201.355Z" fill="url(#paint2_linear_1795_86671)"/>
<path d="M427.039 208.482C426.873 206.985 426.445 204.491 426.232 201.355L424.735 187.694C423.951 178.524 418.416 169.33 413.07 164.364L411.573 162.963" stroke="#010101" stroke-width="0.237574" stroke-miterlimit="10" stroke-linecap="round" stroke-linejoin="round"/>
<path d="M343.817 129.823L342.178 112.005C341.442 103.618 336.144 95.1844 331.036 90.6467L325.168 85.4201C320.084 80.8824 316.592 82.6406 315.356 87.0595L311.84 99.9597L343.817 129.823Z" fill="#010101" stroke="#010101" stroke-width="0.237574" stroke-miterlimit="10" stroke-linecap="round" stroke-linejoin="round"/>
<path d="M343.604 124.501L342.178 112.005C341.442 103.619 336.144 95.1846 331.036 90.647L311.84 99.9599L310.486 100.839L341.751 130.678L343.746 129.799C343.794 128.706 343.485 127.138 343.604 124.501Z" fill="#DFEDE8"/>
<path d="M343.77 132.269C343.841 131.2 343.77 127.375 343.58 124.501L342.155 112.004C341.418 103.618 336.12 95.1839 331.012 90.6463L329.587 89.3633" stroke="#010101" stroke-width="0.237574" stroke-miterlimit="10" stroke-linecap="round" stroke-linejoin="round"/>
<path d="M343.699 125.618L342.321 113.074C341.608 104.64 337.118 96.515 332.224 91.9536L330.846 90.3618L313.836 99.0333L311.84 101.884L340.468 131.937L343.936 130.464C343.984 129.371 343.604 128.279 343.699 125.618Z" fill="url(#paint3_linear_1795_86671)"/>
<path d="M121.923 324.634L122.113 321.664C118.17 321.474 114.25 321.07 110.425 320.5L109.902 323.446C113.822 324.04 117.885 324.42 121.923 324.634Z" fill="white"/>
<path d="M146.655 323.588C150.646 323.042 154.661 322.305 158.533 321.402L157.132 318.504C153.354 319.383 149.458 320.096 145.562 320.642L146.655 323.588Z" fill="white"/>
<path d="M86.4772 317.934L87.7601 314.608C84.054 313.159 80.4904 311.52 77.1644 309.69L75.4301 312.826C78.8986 314.703 82.6285 316.438 86.4772 317.934Z" fill="white"/>
<path d="M180.842 314.251C182.362 313.562 183.883 312.825 185.379 312.065C187.684 310.901 189.703 309.784 191.604 308.691L189.204 306.197C187.375 307.266 185.997 307.741 183.764 308.881C182.315 309.618 180.842 310.331 179.369 310.996L180.842 314.251Z" fill="white"/>
<path d="M56.3765 297.621L59.1324 295.34C56.6141 292.275 54.6185 288.997 53.2643 285.647L49.962 287.001C51.435 290.684 53.5969 294.271 56.3765 297.621Z" fill="white"/>
<path d="M211.18 291.111C211.798 290.351 212.391 289.519 213.033 288.593C214.577 286.336 215.931 283.485 217.095 280.135L213.722 278.971C212.677 282.036 211.441 284.578 210.087 286.574C209.517 287.429 208.947 288.189 208.4 288.878L211.18 291.111Z" fill="white"/>
<path d="M52.6704 263.578C53.8345 260.133 55.5688 256.712 57.8495 253.433L54.5472 252.126C52.0765 255.69 50.556 258.66 49.2969 262.437L52.6704 263.578Z" fill="white"/>
<path d="M74.0759 236.874C77.0218 234.902 81.5119 232.55 84.9092 230.816L82.7711 228.63L82.486 228.773C78.9461 230.578 74.9786 232.883 71.9139 234.949L74.0759 236.874Z" fill="white"/>
<path d="M106.623 221.646C110.353 220.648 114.226 219.793 118.122 219.104L116.316 216.775C112.325 217.488 108.358 218.343 104.509 219.389L106.623 221.646Z" fill="white"/>
<path d="M140.929 214.589C142.925 214.565 153.544 214.969 153.544 214.969L153.378 217.345C153.378 217.345 143.519 216.965 141.571 216.988L140.929 214.589Z" fill="white"/>
<path d="M326.356 225.685L330.133 225.518C332.438 225.4 334.742 225.21 337.023 224.972L336.666 221.408C334.433 221.646 332.176 221.812 329.967 221.931L326.379 222.074L324.74 222.002L324.574 225.566L326.356 225.685ZM300.104 224.402L300.27 221.432L288.059 220.838L287.892 223.808L300.104 224.402ZM263.446 222.596L263.612 219.627L251.401 219.033L251.235 222.002L263.446 222.596ZM226.788 220.814L226.955 217.251L214.743 216.657L214.577 220.221L226.788 220.814ZM359.141 218.272C363.18 217.108 367.48 214.4 371.233 212.879L369.309 210.147C365.65 211.62 361.469 214.281 357.549 215.421L359.141 218.272ZM190.107 219.009L190.273 216.633L178.062 216.039L177.896 218.415L190.107 219.009ZM389.004 201.951C392.52 199.361 395.561 196.843 400.384 194.016L398.008 191.141C393.969 194.515 389.93 197.223 386.581 199.67L389.004 201.951ZM256.889 145.242C259.811 142.7 263.018 140.253 266.439 137.996L263.28 136.191C259.716 138.543 256.366 141.085 253.325 143.722L256.889 145.242ZM286.823 128.303C290.53 126.949 295.59 125.975 299.534 124.953L297.514 122.245C293.452 123.29 288.819 124.145 284.994 125.523L286.823 128.303ZM317.755 121.199C321.462 119.845 325.952 118.966 329.896 117.945L327.163 115.379C323.101 116.424 319.727 117.042 315.926 118.42L317.755 121.199Z" fill="white"/>
<path d="M241.162 171.09C241.375 169.379 241.851 167.574 242.54 165.744L239.213 164.461C238.406 166.552 237.859 168.619 237.622 170.638L241.162 171.09Z" fill="white"/>
<path d="M262.424 162.87C262.424 162.87 263.897 163.012 264.586 166.291C265.157 168.999 264.848 169.712 265.299 171.327C265.846 173.347 267.295 174.226 267.295 174.226L242.207 172.42L250.213 166.077L262.424 162.87Z" fill="#010101"/>
<path d="M262.424 165.411C262.424 165.411 263.897 165.554 264.586 168.832C265.157 171.54 264.848 172.253 265.299 173.869C265.846 175.888 267.295 176.767 267.295 176.767L242.207 174.962L250.213 168.618L262.424 165.411Z" fill="#010101"/>
<path d="M238.406 228.037L228.927 190.31L129.145 186.319C118.597 186.319 110.045 194.871 110.045 205.42C110.045 215.968 118.597 224.521 129.145 224.521C129.739 224.521 130.31 224.497 130.88 224.449L238.406 228.037Z" fill="url(#paint4_linear_1795_86671)"/>
<path d="M129.146 224.497C139.695 224.497 148.247 215.945 148.247 205.395C148.247 194.846 139.695 186.294 129.146 186.294C118.596 186.294 110.045 194.846 110.045 205.395C110.045 215.945 118.596 224.497 129.146 224.497Z" fill="url(#paint5_linear_1795_86671)" stroke="#010101" stroke-width="0.237574" stroke-miterlimit="10" stroke-linecap="round" stroke-linejoin="round"/>
<path d="M134.776 202.021V204.801C134.776 204.801 132.543 204.896 132.495 203.851C132.472 202.806 132.4 202.211 132.733 202.211C133.089 202.235 134.776 202.021 134.776 202.021Z" fill="#010101" stroke="#010101" stroke-width="0.237574" stroke-miterlimit="10" stroke-linecap="round" stroke-linejoin="round"/>
<path d="M134.681 205.966C134.61 205.894 134.539 205.847 134.42 205.775L133.541 205.348C133.351 205.253 133.137 205.205 132.899 205.181C131.997 204.778 131.236 204.374 130.809 204.089C129.051 202.853 126.105 201.761 124.75 201.214C123.396 200.668 121.282 199.765 120.379 199.836L114.725 200.216V204.611C114.725 204.611 114.749 204.611 114.772 204.587C114.82 204.683 114.939 204.778 115.081 204.849L116.008 205.3C116.435 205.514 117.101 205.538 117.576 205.372C118.93 204.897 119.334 204.968 120.545 205.562C121.139 205.847 121.591 206.108 122.066 206.393C122.565 206.678 123.064 206.963 123.705 207.272C125.249 208.032 127.174 208.223 128.932 208.056C128.575 209.007 129.122 209.933 130.547 210.622C131.141 210.907 131.783 211.192 132.472 211.477C133.161 211.762 133.873 212.071 134.539 212.404C134.562 212.428 134.586 212.428 134.61 212.451V214.114C134.586 214.281 134.705 214.471 134.966 214.589L135.916 215.065C136.154 215.183 136.487 215.255 136.819 215.231C137.128 215.231 137.437 215.16 137.651 215.065C137.675 215.065 137.674 215.041 137.698 215.041C139.029 214.304 139.955 213.378 140.003 212.427C140.003 212.38 140.003 212.309 140.003 212.261V208.056C140.027 208.032 137.247 207.035 134.681 205.966Z" fill="url(#paint6_linear_1795_86671)" stroke="#010101" stroke-width="0.237574" stroke-miterlimit="10" stroke-linecap="round" stroke-linejoin="round"/>
<path d="M131.854 201.142C130.025 201.997 129.241 201.736 128.314 201.285C127.554 200.905 127.079 200.643 126.58 200.358C126.081 200.097 125.582 199.812 124.846 199.432C121.662 197.864 117.742 198.576 115.153 199.764C114.915 199.883 114.772 200.026 114.772 200.192C114.772 200.358 114.891 200.501 115.129 200.62L116.055 201.071C116.483 201.285 117.148 201.308 117.623 201.142C118.978 200.667 119.381 200.738 120.593 201.332C121.187 201.617 121.638 201.879 122.114 202.164C122.612 202.449 123.111 202.734 123.753 203.043C125.297 203.803 127.221 203.993 128.979 203.827C128.623 204.777 129.169 205.704 130.595 206.393C131.189 206.678 131.83 206.963 132.519 207.248C133.208 207.533 133.921 207.842 134.586 208.174C135.608 208.673 135.845 208.887 134.871 209.6C134.539 209.837 134.61 210.146 135.014 210.36L135.964 210.835C136.202 210.954 136.534 211.025 136.867 211.001C137.176 211.001 137.485 210.93 137.698 210.835C137.722 210.835 137.722 210.811 137.746 210.811C140.193 209.481 141.238 207.462 138.126 205.941C137.461 205.609 136.843 205.347 136.273 205.086C135.655 204.825 135.014 204.539 134.254 204.159C133.327 203.708 132.852 203.352 134.539 202.378C134.943 202.14 134.919 201.784 134.467 201.57L133.588 201.142C133.089 200.928 132.329 200.928 131.854 201.142Z" fill="url(#paint7_linear_1795_86671)" stroke="#010101" stroke-width="0.237574" stroke-miterlimit="10" stroke-linecap="round" stroke-linejoin="round"/>
<path d="M128.861 204.587V207.723" stroke="#010101" stroke-width="0.237574" stroke-miterlimit="10" stroke-linecap="round" stroke-linejoin="round"/>
<path d="M134.634 210.479V212.142" stroke="#010101" stroke-width="0.237574" stroke-miterlimit="10" stroke-linecap="round" stroke-linejoin="round"/>
<path d="M117.077 202.236V204.588" stroke="#010101" stroke-width="0.237574" stroke-miterlimit="10" stroke-linecap="round" stroke-linejoin="round"/>
<path d="M192.601 256.996C192.601 256.996 191.556 239.416 194.93 224.805C197.187 215.041 199.562 200.929 204.29 175.104C204.955 171.517 207.45 161.088 208.875 160.826L263.018 164.461C261.26 165.934 259.098 175.532 257.815 182.303C252.731 209.077 250.76 219.483 249.358 227.014C245.557 247.683 246.198 258.754 246.198 258.754" fill="#DFEDE8"/>
<path d="M192.601 256.996C192.601 256.996 191.556 239.416 194.93 224.805C197.187 215.041 199.562 200.929 204.29 175.104C204.955 171.517 207.45 161.088 208.875 160.826L263.018 164.461C261.26 165.934 259.098 175.532 257.815 182.303C252.731 209.077 250.76 219.483 249.358 227.014C245.557 247.683 246.198 258.754 246.198 258.754" stroke="#010101" stroke-width="0.237574" stroke-miterlimit="10" stroke-linecap="round" stroke-linejoin="round"/>
<path d="M192.601 255.143C192.601 255.143 191.556 237.563 194.93 222.952C197.187 213.188 199.562 199.076 204.29 173.251C204.955 169.664 207.45 159.234 208.875 158.973L262.424 162.869C260.666 164.342 259.122 173.703 257.839 180.474C252.755 207.248 250.783 217.654 249.382 225.185C245.58 245.854 246.222 256.925 246.222 256.925" fill="#DFEDE8"/>
<path d="M192.601 255.143C192.601 255.143 191.556 237.563 194.93 222.952C197.187 213.188 199.562 199.076 204.29 173.251C204.955 169.664 207.45 159.234 208.875 158.973L262.424 162.869C260.666 164.342 259.122 173.703 257.839 180.474C252.755 207.248 250.783 217.654 249.382 225.185C245.58 245.854 246.222 256.925 246.222 256.925" stroke="#010101" stroke-width="0.237574" stroke-miterlimit="10" stroke-linecap="round" stroke-linejoin="round"/>
<path d="M233.892 169.165L235.484 161.183L232.063 160.945L230.471 168.928L233.892 169.165Z" fill="white"/>
<path d="M229.639 193.493L231.041 185.392L227.62 185.154L226.194 193.256L229.639 193.493Z" fill="white"/>
<path d="M224.531 219.959C225.197 216.348 226.242 209.696 226.242 209.696L222.821 209.458C222.821 209.458 221.443 217.939 221.11 219.674L224.531 219.959Z" fill="white"/>
<path d="M220.564 257.495C220.706 255.618 220.896 244.785 221.11 242.742L217.642 242.765C217.404 244.856 217.214 255.143 217.072 257.044L220.564 257.495Z" fill="white"/>
<path opacity="0.57" d="M257.483 112.504C270.003 104.617 291.171 99.8176 298.821 96.3728C299.985 95.6838 301.244 95.1374 302.574 94.7098C303.335 94.4722 304.095 94.2584 304.879 94.1158C315 92.2153 324.313 98.9386 325.69 109.131C326.641 116.163 323.576 123.005 318.278 127.186C316.282 128.778 313.954 129.966 311.412 130.679C277.249 141.251 252.375 153.438 244.464 178.146C237.55 173.347 221.894 158.879 221.894 158.879C230.019 135.881 239.404 123.908 257.483 112.504Z" fill="url(#paint8_linear_1795_86671)"/>
<path opacity="0.7" d="M289.057 116.02C290.434 126.212 299.771 132.936 309.868 131.035C319.989 129.134 327.045 119.323 325.667 109.131C324.289 98.9386 314.952 92.2152 304.855 94.1158C294.758 96.0402 287.679 105.828 289.057 116.02Z" fill="url(#paint9_linear_1795_86671)" stroke="#010101" stroke-width="0.237574" stroke-miterlimit="10" stroke-linecap="round" stroke-linejoin="round"/>
<path d="M301.268 115.663L296.113 114.19C296.113 114.19 297.182 111.267 297.182 111.244C297.609 110.388 299.13 110.08 300.698 110.602L317.423 116.162C318.563 116.542 319.894 117.706 319.68 118.561L318.587 121.578L301.268 115.663Z" fill="#FFCE49" stroke="#010101" stroke-width="0.237574" stroke-miterlimit="10" stroke-linecap="round" stroke-linejoin="round"/>
<path d="M300.222 102.573C300.531 101.717 302.147 101.48 303.81 102.05C305.473 102.596 306.589 103.737 306.281 104.592L305.117 107.775L299.106 105.614L300.222 102.573Z" fill="#FFCE49" stroke="#010101" stroke-width="0.237574" stroke-miterlimit="10" stroke-linecap="round" stroke-linejoin="round"/>
<path d="M314.976 122.196L298.868 116.851C297.656 116.447 295.803 115.473 296.136 114.118C296.16 114.095 296.184 114.047 296.184 114.024H296.16L299.058 105.685C299.415 104.639 301.101 104.259 302.788 104.805C304.475 105.376 305.544 106.682 305.188 107.704L302.788 114.522L316.377 119.036C317.589 119.44 318.991 120.723 318.563 121.578C318.135 122.434 316.187 122.6 314.976 122.196Z" fill="url(#paint10_linear_1795_86671)" stroke="#010101" stroke-width="0.237574" stroke-miterlimit="10" stroke-linecap="round" stroke-linejoin="round"/>
<path d="M297.015 235.686C297.015 235.686 329.515 240.936 356.243 233.666C390.619 224.306 404.636 207.177 404.636 207.177L381.188 178.668C381.188 178.668 370.663 188.432 348.83 195.916C335.692 200.406 315.451 199.646 306.59 198.791C305.877 198.553 305.14 198.363 304.404 198.22C294.046 196.177 284.02 202.924 282.001 213.283C279.981 223.641 286.657 233.643 297.015 235.686Z" fill="url(#paint11_linear_1795_86671)"/>
<path d="M300.674 236.042C311.223 236.042 319.775 227.49 319.775 216.941C319.775 206.392 311.223 197.84 300.674 197.84C290.125 197.84 281.573 206.392 281.573 216.941C281.573 227.49 290.125 236.042 300.674 236.042Z" fill="url(#paint12_linear_1795_86671)" stroke="#010101" stroke-width="0.237574" stroke-miterlimit="10" stroke-linecap="round" stroke-linejoin="round"/>
<path d="M311.626 210.789L308.039 207.368L304.071 214.638L301.909 217.203L303.074 214.21C303.406 213.378 303.549 212.737 303.335 212.381C303.287 212.309 303.216 212.238 303.145 212.19L299.557 208.769L293.737 218.534L289.722 223.119L293.238 226.492C293.428 226.706 293.832 226.778 294.545 226.659L296.493 226.326C298.132 226.041 298.797 225.138 299.154 224.212L299.581 223.119L301.577 225.043C301.767 225.281 302.171 225.376 302.931 225.257L304.879 224.924C306.518 224.639 307.184 223.737 307.54 222.81L311.46 212.832C311.84 211.81 311.983 211.098 311.626 210.789Z" fill="url(#paint13_linear_1795_86671)"/>
<path d="M311.626 210.789L308.039 207.368L304.071 214.638L301.909 217.203L303.074 214.21C303.406 213.378 303.549 212.737 303.335 212.381C303.287 212.309 303.216 212.238 303.145 212.19L299.557 208.769L293.737 218.534L289.722 223.119L293.238 226.492C293.428 226.706 293.832 226.778 294.545 226.659L296.493 226.326C298.132 226.041 298.797 225.138 299.154 224.212L299.581 223.119L301.577 225.043C301.767 225.281 302.171 225.376 302.931 225.257L304.879 224.924C306.518 224.639 307.184 223.737 307.54 222.81L311.46 212.832C311.84 211.81 311.983 211.098 311.626 210.789Z" stroke="#010101" stroke-width="0.237574" stroke-miterlimit="10" stroke-linecap="round" stroke-linejoin="round"/>
<path d="M295.59 220.741C295.233 221.668 294.568 222.594 292.929 222.856L290.981 223.188C289.342 223.473 289.342 222.665 289.722 221.739C289.864 221.383 290.506 220.361 290.862 219.791L296.017 211.119C296.801 209.813 297.372 208.934 298.678 208.696C300.127 208.459 300.08 209.361 299.51 210.787L295.59 220.741ZM303.976 219.316C303.62 220.242 302.955 221.169 301.315 221.43L299.367 221.763C297.728 222.048 297.728 221.24 298.108 220.313C298.251 219.957 298.892 218.935 299.248 218.365L304.404 209.694C305.188 208.387 305.758 207.508 307.065 207.271C308.514 207.033 308.466 207.936 307.896 209.361L303.976 219.316Z" fill="#FCD0C4"/>
<path d="M295.59 220.741C295.233 221.668 294.568 222.594 292.929 222.856L290.981 223.188C289.342 223.473 289.342 222.665 289.722 221.739C289.864 221.383 290.506 220.361 290.862 219.791L296.017 211.119C296.801 209.813 297.372 208.934 298.678 208.696C300.127 208.459 300.08 209.361 299.51 210.787L295.59 220.741ZM303.976 219.316C303.62 220.242 302.955 221.169 301.315 221.43L299.367 221.763C297.728 222.048 297.728 221.24 298.108 220.313C298.251 219.957 298.892 218.935 299.248 218.365L304.404 209.694C305.188 208.387 305.758 207.508 307.065 207.271C308.514 207.033 308.466 207.936 307.896 209.361L303.976 219.316Z" stroke="#010101" stroke-width="0.237574" stroke-miterlimit="10" stroke-linecap="round" stroke-linejoin="round"/>
<path d="M298.108 221.645L299.605 223.07" stroke="#010101" stroke-width="0.237574" stroke-miterlimit="10" stroke-linecap="round" stroke-linejoin="round"/>
<path d="M198.208 307.552L198.992 301.494L187.137 301.85L189.394 303.014L180.366 307.528L186.9 310.901L195.928 306.388L198.208 307.552Z" fill="#010101" stroke="#010101" stroke-width="0.237574" stroke-miterlimit="10" stroke-linecap="round" stroke-linejoin="round"/>
<path d="M269.884 140.918L270.668 134.859L258.813 135.24L261.07 136.404L252.066 140.918L258.6 144.267L267.604 139.754L269.884 140.918Z" fill="#010101" stroke="#010101" stroke-width="0.237574" stroke-miterlimit="10" stroke-linecap="round" stroke-linejoin="round"/>
<path d="M172.574 213.685L172.621 211.832L163.95 216.346L172.455 220.884L172.503 219.031L184.643 219.316L184.738 213.97L172.574 213.685Z" fill="#010101" stroke="#010101" stroke-width="0.237574" stroke-miterlimit="10" stroke-linecap="round" stroke-linejoin="round"/>
<path d="M160.006 330.93C160.006 330.93 125.534 339.53 99.0211 331.5C64.8817 321.166 51.7439 306.983 51.7439 306.983L79.5401 270.848C79.5401 270.848 83.4125 278.901 112.42 292.229C125.035 298.026 138.934 296.387 147.7 294.866C148.389 294.581 149.102 294.344 149.838 294.13C160.006 291.327 170.507 297.29 173.31 307.458C176.138 317.626 170.151 328.127 160.006 330.93Z" fill="url(#paint14_linear_1795_86671)"/>
<path opacity="0.7" d="M154.922 331.643C165.472 331.643 174.023 323.091 174.023 312.542C174.023 301.993 165.472 293.441 154.922 293.441C144.373 293.441 135.821 301.993 135.821 312.542C135.821 323.091 144.373 331.643 154.922 331.643Z" fill="#FFCE49" stroke="#010101" stroke-width="0.237574" stroke-miterlimit="10" stroke-linecap="round" stroke-linejoin="round"/>
<path d="M162.073 316.009L160.006 317.696C160.006 317.696 158.581 316.08 159.317 315.439C160.054 314.798 160.458 314.37 160.672 314.631C160.909 314.869 162.073 316.009 162.073 316.009Z" fill="#010101" stroke="#010101" stroke-width="0.237574" stroke-miterlimit="10" stroke-linecap="round" stroke-linejoin="round"/>
<path d="M159.08 318.314C159.104 318.219 159.08 318.124 159.056 318.006L158.842 317.079C158.795 316.889 158.7 316.675 158.581 316.485C158.343 315.558 158.177 314.775 158.129 314.276C157.987 312.209 156.989 309.358 156.585 308.027C156.181 306.673 155.564 304.559 154.97 303.941L151.264 299.974L147.985 302.635C147.985 302.635 148.009 302.635 148.033 302.658C148.009 302.753 148.009 302.896 148.033 303.038L148.246 304.012C148.341 304.464 148.745 304.963 149.149 305.224C150.337 305.937 150.503 306.269 150.812 307.552C150.955 308.17 151.026 308.669 151.121 309.192C151.216 309.714 151.311 310.284 151.454 310.926C151.834 312.541 152.855 314.086 154.043 315.297C153.117 315.606 152.76 316.58 153.117 318.053C153.259 318.671 153.449 319.336 153.639 320.001C153.829 320.69 154.043 321.403 154.209 322.116C154.209 322.139 154.21 322.163 154.233 322.187L152.998 323.209C152.855 323.28 152.784 323.494 152.855 323.755L153.093 324.753C153.14 324.99 153.307 325.275 153.497 325.513C153.687 325.75 153.924 325.917 154.138 326.036C154.162 326.036 154.162 326.059 154.186 326.059C155.54 326.606 156.799 326.725 157.536 326.202C157.583 326.178 157.607 326.131 157.654 326.107L160.79 323.565C160.767 323.565 159.84 320.88 159.08 318.314Z" fill="#A1A7A7" stroke="#010101" stroke-width="0.237574" stroke-miterlimit="10" stroke-linecap="round" stroke-linejoin="round"/>
<path d="M160.933 313.277C159.199 312.422 158.89 311.686 158.676 310.736C158.486 309.952 158.391 309.429 158.296 308.882C158.201 308.36 158.106 307.813 157.916 307.029C157.132 303.703 154.233 301.233 151.786 299.997C151.549 299.878 151.359 299.878 151.24 299.973C151.121 300.068 151.074 300.258 151.145 300.496L151.359 301.47C151.454 301.922 151.858 302.42 152.261 302.682C153.449 303.394 153.616 303.727 153.924 305.01C154.067 305.628 154.138 306.127 154.233 306.649C154.328 307.172 154.423 307.742 154.566 308.383C154.946 309.999 155.968 311.543 157.155 312.755C156.229 313.064 155.873 314.038 156.229 315.511C156.371 316.128 156.562 316.794 156.752 317.459C156.942 318.148 157.155 318.86 157.322 319.573C157.559 320.642 157.559 320.951 156.443 320.642C156.063 320.547 155.872 320.785 155.968 321.212L156.205 322.21C156.253 322.448 156.419 322.733 156.609 322.971C156.799 323.208 157.037 323.374 157.251 323.493C157.274 323.493 157.274 323.517 157.298 323.517C159.769 324.539 161.907 324.087 161.17 320.832C161.004 320.143 160.838 319.526 160.672 318.932C160.505 318.314 160.315 317.649 160.125 316.865C159.911 315.915 159.888 315.321 161.622 316.01C162.049 316.176 162.287 315.938 162.192 315.463L161.978 314.537C161.859 314.062 161.408 313.515 160.933 313.277Z" fill="url(#paint15_linear_1795_86671)" stroke="#010101" stroke-width="0.237574" stroke-miterlimit="10" stroke-linecap="round" stroke-linejoin="round"/>
<path d="M156.585 313.135L154.233 315.06" stroke="#010101" stroke-width="0.237574" stroke-miterlimit="10" stroke-linecap="round" stroke-linejoin="round"/>
<path d="M155.683 321.022L154.447 322.02" stroke="#010101" stroke-width="0.237574" stroke-miterlimit="10" stroke-linecap="round" stroke-linejoin="round"/>
<path d="M151.192 302.943L149.434 304.368" stroke="#010101" stroke-width="0.237574" stroke-miterlimit="10" stroke-linecap="round" stroke-linejoin="round"/>
</g>
<defs>
<linearGradient id="paint0_linear_1795_86671" x1="167.482" y1="162.723" x2="167.482" y2="110.751" gradientUnits="userSpaceOnUse">
<stop stop-color="#757D7C"/>
<stop offset="0.7654" stop-color="#D0D3D3"/>
</linearGradient>
<linearGradient id="paint1_linear_1795_86671" x1="292.985" y1="224.906" x2="156.412" y2="212.957" gradientUnits="userSpaceOnUse">
<stop offset="0.1508" stop-color="#010101" stop-opacity="0"/>
<stop offset="0.4609" stop-color="#010101" stop-opacity="0.7"/>
<stop offset="0.8994" stop-color="#010101" stop-opacity="0"/>
</linearGradient>
<linearGradient id="paint2_linear_1795_86671" x1="404.596" y1="194.139" x2="424.865" y2="179.946" gradientUnits="userSpaceOnUse">
<stop offset="0.2626" stop-color="#010101" stop-opacity="0"/>
<stop offset="1" stop-color="#010101" stop-opacity="0.5025"/>
</linearGradient>
<linearGradient id="paint3_linear_1795_86671" x1="323.489" y1="118.498" x2="342.324" y2="105.309" gradientUnits="userSpaceOnUse">
<stop offset="0.2626" stop-color="#010101" stop-opacity="0"/>
<stop offset="1" stop-color="#010101" stop-opacity="0.5025"/>
</linearGradient>
<linearGradient id="paint4_linear_1795_86671" x1="110.053" y1="207.169" x2="238.414" y2="207.169" gradientUnits="userSpaceOnUse">
<stop offset="0.3073" stop-color="#F58A6B" stop-opacity="0.6"/>
<stop offset="1" stop-color="#F58A6B" stop-opacity="0"/>
</linearGradient>
<linearGradient id="paint5_linear_1795_86671" x1="110.054" y1="205.398" x2="148.24" y2="205.398" gradientUnits="userSpaceOnUse">
<stop stop-color="#F8A38A" stop-opacity="0"/>
<stop offset="0.2102" stop-color="#F79B81" stop-opacity="0.1261"/>
<stop offset="0.6882" stop-color="#F68F71" stop-opacity="0.4129"/>
<stop offset="1" stop-color="#F58A6B" stop-opacity="0.6"/>
</linearGradient>
<linearGradient id="paint6_linear_1795_86671" x1="114.699" y1="207.521" x2="139.979" y2="207.521" gradientUnits="userSpaceOnUse">
<stop offset="0.8939" stop-color="#62C089"/>
<stop offset="1" stop-color="#36B779"/>
</linearGradient>
<linearGradient id="paint7_linear_1795_86671" x1="114.699" y1="204.791" x2="139.981" y2="204.791" gradientUnits="userSpaceOnUse">
<stop stop-color="white"/>
<stop offset="0.148" stop-color="#93D1B1"/>
<stop offset="1" stop-color="#62C089"/>
</linearGradient>
<linearGradient id="paint8_linear_1795_86671" x1="255.89" y1="182.392" x2="290.939" y2="86.4057" gradientUnits="userSpaceOnUse">
<stop offset="0.0837989" stop-color="#B7DFCC" stop-opacity="0"/>
<stop offset="0.8352" stop-color="#7EC9A1"/>
</linearGradient>
<linearGradient id="paint9_linear_1795_86671" x1="325.585" y1="109.187" x2="288.717" y2="114.202" gradientUnits="userSpaceOnUse">
<stop stop-color="#DDF0E6"/>
<stop offset="1" stop-color="#62C089" stop-opacity="0.7"/>
</linearGradient>
<linearGradient id="paint10_linear_1795_86671" x1="317.287" y1="111.917" x2="296.038" y2="114.808" gradientUnits="userSpaceOnUse">
<stop offset="0.3184" stop-color="#FFCE49"/>
<stop offset="1" stop-color="white"/>
</linearGradient>
<linearGradient id="paint11_linear_1795_86671" x1="399.203" y1="191.084" x2="285.102" y2="230.128" gradientUnits="userSpaceOnUse">
<stop offset="0.0949721" stop-color="#FFCE49" stop-opacity="0"/>
<stop offset="0.9218" stop-color="#FFCE49"/>
</linearGradient>
<linearGradient id="paint12_linear_1795_86671" x1="319.477" y1="220.525" x2="282.005" y2="213.166" gradientUnits="userSpaceOnUse">
<stop stop-color="#FFCE49" stop-opacity="0.0355391"/>
<stop offset="0.7542" stop-color="#FFCE49" stop-opacity="0.5"/>
<stop offset="1" stop-color="#FFCE49" stop-opacity="0"/>
</linearGradient>
<linearGradient id="paint13_linear_1795_86671" x1="310.446" y1="218.783" x2="291.34" y2="215.031" gradientUnits="userSpaceOnUse">
<stop offset="0.3017" stop-color="#F58A6B"/>
<stop offset="0.6732" stop-color="#F8A690"/>
</linearGradient>
<linearGradient id="paint14_linear_1795_86671" x1="55.1718" y1="292.925" x2="172.471" y2="321.331" gradientUnits="userSpaceOnUse">
<stop offset="0.0949721" stop-color="#FFCE49" stop-opacity="0"/>
<stop offset="0.9218" stop-color="#FFCE49"/>
</linearGradient>
<linearGradient id="paint15_linear_1795_86671" x1="147.793" y1="302.695" x2="163.137" y2="321.529" gradientUnits="userSpaceOnUse">
<stop offset="0.2821" stop-color="#D0D3D3"/>
<stop offset="0.34" stop-color="#CACDCD"/>
<stop offset="0.7346" stop-color="#A1A7A7"/>
</linearGradient>
<clipPath id="clip0_1795_86671">
<rect width="450" height="350" fill="white"/>
</clipPath>
</defs>
</svg>
