<svg width="450" height="350" viewBox="0 0 450 350" fill="none" xmlns="http://www.w3.org/2000/svg">
<rect width="450" height="350" fill="white"/>
<path d="M129.942 294.414L129.395 283.304L258.778 231.747C265.018 228.682 264.361 219.378 257.574 215.93C250.788 212.482 232.179 211.88 225.94 214.945L158.676 248.221L104 220.199V208.925L171.264 186.978C187.628 179.042 212.257 174.937 238.802 175.813C265.401 176.634 290.741 182.325 308.364 191.356C325.987 200.387 336.66 213.194 337.645 226.438C338.63 239.683 329.819 251.888 313.454 259.824L183.36 322.874" fill="#010101"/>
<path d="M129.942 294.414L129.395 283.304L258.778 231.747C265.018 228.682 264.361 219.378 257.574 215.93C250.788 212.482 232.179 211.88 225.94 214.945L158.676 248.221L104 220.199V208.925L171.264 186.978C187.628 179.042 212.257 174.937 238.802 175.813C265.401 176.634 290.741 182.325 308.364 191.356C325.987 200.387 336.66 213.194 337.645 226.438C338.63 239.683 329.819 251.888 313.454 259.824L183.36 322.874" stroke="#010101" stroke-width="0.547307" stroke-miterlimit="10" stroke-linecap="round" stroke-linejoin="round"/>
<path d="M183.414 311.654L313.454 248.495C329.819 240.559 338.63 228.354 337.645 215.109C336.66 201.864 325.987 189.057 308.364 180.027C290.741 170.996 265.401 165.359 238.802 164.483C212.203 163.662 187.628 167.712 171.264 175.648L104 208.924L158.676 236.947L225.94 203.67C232.179 200.605 250.842 201.208 257.574 204.656C264.306 208.104 265.018 217.408 258.778 220.473L129.395 283.303L183.414 311.654Z" fill="url(#paint0_linear_1795_86669)" stroke="#010101" stroke-width="0.547307" stroke-miterlimit="10" stroke-linecap="round" stroke-linejoin="round"/>
<path d="M123.867 198.854L179.036 226.658" stroke="#010101" stroke-width="0.547307" stroke-miterlimit="10" stroke-linecap="round" stroke-linejoin="round"/>
<path d="M145.267 275.696L200.49 303.445" stroke="#010101" stroke-width="0.547307" stroke-miterlimit="10" stroke-linecap="round" stroke-linejoin="round"/>
<path d="M197.042 250.629L252.211 278.432" stroke="#010101" stroke-width="0.547307" stroke-miterlimit="10" stroke-linecap="round" stroke-linejoin="round"/>
<path d="M175.588 173.842L221.562 206.845" stroke="#010101" stroke-width="0.547307" stroke-miterlimit="10" stroke-linecap="round" stroke-linejoin="round"/>
<path d="M241.866 164.593V202.138" stroke="#010101" stroke-width="0.547307" stroke-miterlimit="10" stroke-linecap="round" stroke-linejoin="round"/>
<path d="M310.225 181.012L259.106 205.641" stroke="#010101" stroke-width="0.547307" stroke-miterlimit="10" stroke-linecap="round" stroke-linejoin="round"/>
<path d="M336.934 223.592L262.39 217.408" stroke="#010101" stroke-width="0.547307" stroke-miterlimit="10" stroke-linecap="round" stroke-linejoin="round"/>
<path d="M298.841 255.391L240.608 229.339" stroke="#010101" stroke-width="0.547307" stroke-miterlimit="10" stroke-linecap="round" stroke-linejoin="round"/>
<path d="M337.974 215V74.561L335.949 73.6308L336.058 60.6047L323.306 44.4592L285.815 39.6978L254.126 44.4592L232.344 60.4954L232.453 71.6056L230.756 71.8245V212.045" fill="url(#paint1_linear_1795_86669)"/>
<path d="M337.974 215V74.561L335.949 73.6308L336.058 60.6047L323.306 44.4592L285.815 39.6978L254.126 44.4592L232.344 60.4954L232.453 71.6056L230.756 71.8245V212.045" stroke="#010101" stroke-width="0.547307" stroke-miterlimit="10" stroke-linecap="round" stroke-linejoin="round"/>
<path d="M283.954 31.8711C249.802 31.8711 222.109 46.4843 222.109 64.5454C222.109 82.6065 249.802 97.2195 283.954 97.2195C318.106 97.2195 345.8 82.6065 345.8 64.5454C345.745 46.4843 318.106 31.8711 283.954 31.8711ZM283.954 83.2631C257.848 83.2631 236.722 72.0983 236.722 58.3062C236.722 44.514 257.903 33.3489 283.954 33.3489C310.061 33.3489 331.187 44.514 331.187 58.3062C331.187 72.0983 310.061 83.2631 283.954 83.2631Z" fill="#19593B" stroke="#010101" stroke-width="0.547307" stroke-miterlimit="10" stroke-linecap="round" stroke-linejoin="round"/>
<path d="M342.243 53.5993C338.247 47.6337 331.023 42.4341 321.719 38.6577C321.336 38.4935 321.007 38.3294 320.624 38.2199C320.569 38.2199 320.569 38.1651 320.514 38.1651C319.748 37.8915 319.037 37.6178 318.271 37.3442C318.325 37.3442 318.326 37.399 318.38 37.399C312.579 35.3192 301.796 31.7617 284.009 31.8711C263.54 31.9806 249.638 37.0707 247.066 38.3295C247.066 38.3295 247.066 38.3295 247.011 38.3295C237.324 42.1606 229.826 47.4695 225.721 53.5993C225.174 55.296 224.9 57.1019 224.9 58.908C224.9 76.1482 251.39 90.1593 284.009 90.1593C316.628 90.1593 343.118 76.1482 343.118 58.908C343.063 57.1019 342.79 55.3507 342.243 53.5993ZM283.955 83.2632C257.848 83.2632 236.722 72.0983 236.722 58.3062C236.722 55.6244 239.021 50.6439 239.021 50.6439C239.021 50.6439 243.727 43.8024 250.186 40.8469C256.644 37.9462 268.794 32.8016 284.009 33.2942C299.224 33.7867 310.827 36.3592 320.131 42.1606C328.122 47.1411 330.366 53.2708 330.859 54.858C331.132 55.9526 331.297 57.1021 331.297 58.2514C331.187 72.0435 310.061 83.2632 283.955 83.2632Z" fill="#62C089"/>
<path d="M283.954 31.8711C249.802 31.8711 222.109 46.4843 222.109 64.5454C222.109 82.6065 249.802 97.2195 283.954 97.2195C318.106 97.2195 345.8 82.6065 345.8 64.5454C345.745 46.4843 318.106 31.8711 283.954 31.8711ZM283.954 83.2631C257.848 83.2631 236.722 72.0983 236.722 58.3062C236.722 44.514 257.903 33.3489 283.954 33.3489C310.061 33.3489 331.187 44.514 331.187 58.3062C331.187 72.0983 310.061 83.2631 283.954 83.2631Z" stroke="#010101" stroke-width="0.547307" stroke-miterlimit="10" stroke-linecap="round" stroke-linejoin="round"/>
<path d="M242.195 70.0186C242.195 70.0186 229.771 72.974 230.756 81.2383" stroke="#010101" stroke-width="0.547307" stroke-miterlimit="10" stroke-linecap="round" stroke-linejoin="round"/>
<path d="M306.066 80.3623C306.066 80.3623 309.568 83.5913 310.389 88.736C311.21 93.8807 310.389 94.0998 310.389 94.0998" stroke="#010101" stroke-width="0.547307" stroke-miterlimit="10" stroke-linecap="round" stroke-linejoin="round"/>
<path d="M290.303 92.9504C290.303 92.9504 287.019 93.1693 283.954 93.1693C280.889 93.1693 277.606 92.9504 277.606 92.9504C276.019 92.9504 274.76 91.6915 274.76 90.1043C274.76 88.5719 276.019 87.2585 277.606 87.2585C277.606 87.2585 281.492 87.4774 283.954 87.5321C286.417 87.5869 288.935 87.3679 290.303 87.2585C291.671 87.2038 293.149 88.5171 293.149 90.1043C293.149 91.6915 291.835 92.9504 290.303 92.9504Z" fill="#FFCE49" stroke="#010101" stroke-width="0.547307" stroke-miterlimit="10" stroke-linecap="round" stroke-linejoin="round"/>
<path d="M343.064 68.3218C343.064 68.3218 342.133 70.6206 340.437 72.7551C338.74 74.8895 336.441 76.9146 336.441 76.9146C335.183 77.7903 333.924 77.5714 332.938 76.3125C331.953 75.0537 332.172 73.2476 333.048 72.153C333.048 72.153 335.565 70.1828 336.934 68.1577C338.138 66.2969 339.014 63.998 339.725 63.0128C340.437 62.0277 341.805 61.8635 342.9 63.3413L343.009 63.6149C343.94 64.819 343.666 66.8988 343.064 68.3218Z" fill="#FFCE49" stroke="#010101" stroke-width="0.547307" stroke-miterlimit="10" stroke-linecap="round" stroke-linejoin="round"/>
<path d="M323.306 44.459V54.5842C326.59 57.2112 328.998 60.1667 330.256 63.3411C330.913 61.6991 331.242 60.0026 331.242 58.2512C331.187 53.1613 328.287 48.3996 323.306 44.459Z" fill="#010101" stroke="#010101" stroke-width="0.547307" stroke-miterlimit="10" stroke-linecap="round" stroke-linejoin="round"/>
<path d="M242.742 46.0464C238.911 49.6586 236.667 53.8184 236.667 58.3063C236.667 60.0577 236.996 61.7542 237.653 63.3961C238.638 60.8238 240.389 58.4156 242.742 56.2263V46.0464Z" fill="#010101" stroke="#010101" stroke-width="0.547307" stroke-miterlimit="10" stroke-linecap="round" stroke-linejoin="round"/>
<path d="M322.251 85.9262C323.103 84.1557 322.624 82.1572 321.18 81.4624C319.737 80.7676 317.876 81.6396 317.024 83.4101C316.171 85.1805 316.651 87.1789 318.094 87.8737C319.538 88.5685 321.399 87.6966 322.251 85.9262Z" fill="#FFCE49" stroke="#010101" stroke-width="0.547307" stroke-miterlimit="10" stroke-linecap="round" stroke-linejoin="round"/>
<path d="M330.749 56.4998C330.749 43.857 309.788 27 283.9 27C258.012 27 237.05 43.857 237.05 56.4998C237.05 57.0471 237.05 59.2363 237.05 59.7836C237.05 72.4264 258.012 83.1537 283.9 83.1537C309.788 83.1537 330.749 72.4264 330.749 59.7836C330.749 59.2363 330.749 57.0471 330.749 56.4998Z" fill="#B7DFCC" stroke="#010101" stroke-width="0.547307" stroke-miterlimit="10" stroke-linecap="round" stroke-linejoin="round"/>
<path d="M283.954 43.4191C306.777 43.4191 325.823 51.957 330.256 63.341C330.913 61.6991 331.242 60.0026 331.242 58.2512C331.242 44.4591 310.061 33.2939 284.009 33.2939C257.902 33.2939 236.776 44.4591 236.776 58.2512C236.776 60.0026 237.105 61.6991 237.762 63.341C242.085 51.957 261.132 43.4191 283.954 43.4191Z" fill="#62C089" stroke="#010101" stroke-width="0.547307" stroke-miterlimit="10" stroke-linecap="round" stroke-linejoin="round"/>
<path d="M298.458 48.5636C300.264 50.2603 301.961 52.1211 303.493 54.0367C303.22 53.7083 303.001 53.38 302.727 53.0516C303.767 54.4199 304.752 55.8428 305.683 57.3205C306.339 58.4151 307.434 59.2909 308.638 59.6193C309.842 59.9477 311.429 59.7836 312.469 59.1268C313.509 58.4153 314.494 57.4299 314.768 56.1711C315.041 54.8576 314.987 53.4893 314.275 52.34C311.867 48.3994 309.35 45.444 305.956 42.2696C305.026 41.3939 303.767 40.792 302.453 40.792C301.249 40.792 299.334 40.6277 298.458 41.5034C297.582 42.4338 296.926 43.6926 296.98 45.0061C297.09 46.3197 297.528 47.6332 298.458 48.5636Z" fill="white"/>
<path d="M270.983 228.19L259.49 227.697C259.49 227.697 259.49 234.046 259.49 234.101C259.709 236.016 262.555 237.603 266.112 237.603H303.821C306.394 237.603 309.897 236.18 310.115 234.374V227.807L270.983 228.19Z" fill="#F58A6B" stroke="#010101" stroke-width="0.547307" stroke-miterlimit="10" stroke-linecap="round" stroke-linejoin="round"/>
<path d="M259.271 252.983C259.271 254.844 262.336 256.321 266.112 256.321C269.889 256.321 272.954 254.844 272.954 252.983V246.032L259.326 246.36V252.983H259.271Z" fill="#F58A6B" stroke="#010101" stroke-width="0.547307" stroke-miterlimit="10" stroke-linecap="round" stroke-linejoin="round"/>
<path d="M303.329 224.359H266.988C264.251 224.359 259.818 225.07 259.49 227.862C259.49 227.916 259.545 228.026 259.545 228.08H259.49L259.216 246.196C259.216 248.44 262.281 250.301 266.057 250.301C269.834 250.301 272.954 248.44 273.008 246.196L273.172 231.419H303.822C306.558 231.419 310.335 229.832 310.116 227.916C309.842 225.946 306.066 224.359 303.329 224.359Z" fill="url(#paint2_linear_1795_86669)" stroke="#010101" stroke-width="0.547307" stroke-miterlimit="10" stroke-linecap="round" stroke-linejoin="round"/>
<path d="M193.211 275.532L192.718 267.541L205.525 270.223H210.779L205.963 268.526C204.65 268.089 203.719 267.596 203.5 266.939C203.446 266.83 203.446 266.666 203.5 266.501L203.008 258.511L220.686 261.521L230.264 261.302L230.756 269.183C230.811 269.621 230.483 270.223 229.607 270.989L227.254 273.014C225.229 274.766 223.477 274.602 221.999 274.109L220.248 273.507L220.521 277.995C220.631 278.487 220.357 279.089 219.427 279.856L217.073 281.881C215.048 283.632 213.297 283.468 211.819 282.975L195.838 277.393C194.251 276.9 193.211 276.298 193.211 275.532Z" fill="#98D2B4" stroke="#010101" stroke-width="0.547307" stroke-miterlimit="10" stroke-linecap="round" stroke-linejoin="round"/>
<path d="M221.507 266.118C222.985 266.611 224.791 266.775 226.761 265.023L229.114 262.999C231.139 261.247 230.154 260.426 228.677 259.934C228.129 259.715 226.268 259.496 225.174 259.277L209.466 256.595C207.113 256.212 205.471 255.938 203.829 257.361C202.077 258.894 203.227 259.769 205.471 260.59L221.507 266.118ZM211.217 274.985C212.695 275.477 214.501 275.641 216.472 273.89L218.825 271.865C220.85 270.113 219.865 269.292 218.387 268.8C217.84 268.581 215.979 268.362 214.884 268.143L199.176 265.461C196.823 265.078 195.181 264.805 193.539 266.228C191.788 267.76 192.937 268.636 195.181 269.457L211.217 274.985Z" fill="#98D2B4" stroke="#010101" stroke-width="0.547307" stroke-miterlimit="10" stroke-linecap="round" stroke-linejoin="round"/>
<path d="M220.029 270.168L220.193 273.507" stroke="#010101" stroke-width="0.547307" stroke-miterlimit="10" stroke-linecap="round" stroke-linejoin="round"/>
<path d="M274.65 188.565L274.869 178.714L261.296 178.385L261.077 188.018C261.022 188.894 261.569 189.824 262.774 190.59C265.182 192.177 269.396 192.506 272.242 191.302C273.829 190.645 274.65 189.605 274.65 188.565Z" fill="url(#paint3_linear_1795_86669)" stroke="#010101" stroke-width="0.547307" stroke-miterlimit="10" stroke-linecap="round" stroke-linejoin="round"/>
<path d="M284.556 185.227C283.735 185.062 281.492 184.789 281.492 184.789L273.61 185.664L273.392 195.461C273.282 196.282 273.775 197.103 274.869 197.815C276.621 198.964 279.193 199.402 281.656 199.073L281.546 203.069C281.546 203.507 281.984 203.89 282.696 204.163L286.089 205.203C286.91 205.422 287.895 205.422 288.552 205.094C288.771 204.984 288.99 204.875 289.099 204.765C290.687 203.233 291.452 201.646 291.398 200.113L291.617 189.879C291.726 189.769 285.377 185.391 284.556 185.227Z" fill="url(#paint4_linear_1795_86669)" stroke="#010101" stroke-width="0.547307" stroke-miterlimit="10" stroke-linecap="round" stroke-linejoin="round"/>
<path d="M272.461 181.45C275.362 180.246 275.69 178.057 273.282 176.415C270.765 174.773 266.66 174.445 263.704 175.649C260.749 176.853 260.42 179.042 262.938 180.684C265.401 182.38 269.56 182.654 272.461 181.45Z" fill="url(#paint5_linear_1795_86669)" stroke="#010101" stroke-width="0.547307" stroke-miterlimit="10" stroke-linecap="round" stroke-linejoin="round"/>
<path d="M276.238 183.037C273.228 184.296 272.79 186.376 275.088 187.908C277.059 189.222 280.124 189.605 282.806 189.003C283.572 190.097 283.298 191.356 282.039 192.67C281.492 193.217 281.93 193.928 282.97 194.257L286.363 195.297C287.184 195.516 288.169 195.516 288.826 195.187C289.045 195.078 289.264 194.968 289.373 194.859C292.931 191.411 292.383 187.58 287.84 184.624C284.283 182.216 279.686 181.614 276.238 183.037Z" fill="url(#paint6_linear_1795_86669)" stroke="#010101" stroke-width="0.547307" stroke-miterlimit="10" stroke-linecap="round" stroke-linejoin="round"/>
<path d="M281.656 194.257L281.601 198.143" stroke="#010101" stroke-width="0.547307" stroke-miterlimit="10" stroke-linecap="round" stroke-linejoin="round"/>
<defs>
<linearGradient id="paint0_linear_1795_86669" x1="104.032" y1="238.026" x2="337.752" y2="238.026" gradientUnits="userSpaceOnUse">
<stop stop-color="#EFF8F5"/>
<stop offset="1" stop-color="#DFEDE8"/>
</linearGradient>
<linearGradient id="paint1_linear_1795_86669" x1="284.35" y1="215.015" x2="284.35" y2="39.6818" gradientUnits="userSpaceOnUse">
<stop stop-color="#B7DFCC" stop-opacity="0"/>
<stop offset="0.3659" stop-color="#76C69B" stop-opacity="0.537"/>
<stop offset="0.7421" stop-color="#62C089"/>
</linearGradient>
<linearGradient id="paint2_linear_1795_86669" x1="259.209" y1="237.315" x2="310.092" y2="237.315" gradientUnits="userSpaceOnUse">
<stop offset="0.00837989" stop-color="#FAB9A8"/>
<stop offset="0.8436" stop-color="#F58A6B"/>
</linearGradient>
<linearGradient id="paint3_linear_1795_86669" x1="260.991" y1="185.123" x2="274.589" y2="185.447" gradientUnits="userSpaceOnUse">
<stop stop-color="white"/>
<stop offset="0.148" stop-color="#93D1B1"/>
<stop offset="1" stop-color="#62C089"/>
</linearGradient>
<linearGradient id="paint4_linear_1795_86669" x1="273.278" y1="194.741" x2="291.487" y2="195.174" gradientUnits="userSpaceOnUse">
<stop stop-color="white"/>
<stop offset="0.148" stop-color="#93D1B1"/>
<stop offset="1" stop-color="#62C089"/>
</linearGradient>
<linearGradient id="paint5_linear_1795_86669" x1="261.146" y1="178.394" x2="274.752" y2="178.718" gradientUnits="userSpaceOnUse">
<stop stop-color="white"/>
<stop offset="0.148" stop-color="#93D1B1"/>
<stop offset="1" stop-color="#62C089"/>
</linearGradient>
<linearGradient id="paint6_linear_1795_86669" x1="273.425" y1="188.58" x2="291.636" y2="189.014" gradientUnits="userSpaceOnUse">
<stop stop-color="white"/>
<stop offset="0.148" stop-color="#93D1B1"/>
<stop offset="1" stop-color="#62C089"/>
</linearGradient>
</defs>
</svg>
