<svg width="450" height="350" viewBox="0 0 450 350" fill="none" xmlns="http://www.w3.org/2000/svg">
<rect width="450" height="350" fill="white"/>
<path d="M385.486 217.57C403.167 206.833 407.52 181.695 395.209 161.42C382.898 141.146 358.585 133.415 340.904 144.151C323.223 154.887 318.87 180.026 331.181 200.3C343.492 220.574 367.805 228.306 385.486 217.57Z" fill="#FFCE49" stroke="#010101" stroke-width="0.832367" stroke-miterlimit="10" stroke-linecap="round" stroke-linejoin="round"/>
<path d="M400.575 158.219C388.256 137.993 363.951 130.252 346.305 140.989C328.659 151.727 324.247 176.864 336.566 197.091C348.885 217.317 373.19 225.058 390.837 214.321C408.483 203.583 412.894 178.446 400.575 158.219Z" fill="url(#paint0_linear_1795_86597)" stroke="#010101" stroke-width="0.832367" stroke-miterlimit="10" stroke-linecap="round" stroke-linejoin="round"/>
<path d="M356.207 186.047C358.565 184.616 359.141 181.258 357.495 178.547C355.849 175.836 352.603 174.798 350.246 176.23C347.888 177.661 347.312 181.02 348.958 183.731C350.604 186.442 353.85 187.479 356.207 186.047Z" fill="#010101" stroke="#010101" stroke-width="0.832367" stroke-miterlimit="10" stroke-linecap="round" stroke-linejoin="round"/>
<path d="M379.918 171.635C382.275 170.203 382.852 166.845 381.205 164.134C379.559 161.423 376.313 160.386 373.956 161.817C371.599 163.249 371.022 166.607 372.668 169.318C374.315 172.029 377.56 173.066 379.918 171.635Z" fill="#010101" stroke="#010101" stroke-width="0.832367" stroke-miterlimit="10" stroke-linecap="round" stroke-linejoin="round"/>
<path d="M387.174 181.026C387.34 182.608 387.173 184.106 386.84 185.604C386.507 187.103 386.008 188.518 385.259 189.766C383.927 192.43 381.763 194.594 379.349 196.176C376.852 197.674 373.939 198.506 370.942 198.506C369.444 198.506 367.946 198.34 366.531 197.923C365.116 197.507 363.618 197.008 362.369 196.092C363.784 196.092 365.199 196.009 366.531 195.843C367.863 195.676 369.111 195.51 370.36 195.177C372.857 194.594 375.104 193.678 377.185 192.43C379.266 191.181 381.097 189.6 382.762 187.685C383.595 186.77 384.343 185.688 385.093 184.606C385.759 183.524 386.508 182.358 387.174 181.026Z" fill="#010101" stroke="#010101" stroke-width="0.832367" stroke-miterlimit="10" stroke-linecap="round" stroke-linejoin="round"/>
<path d="M240.47 40.8571C239.935 40.5598 239.281 40.5599 238.508 40.9167L73.1512 122.614C71.4269 123.446 70 126.063 70 128.322V254.554C70 255.862 70.4757 256.814 71.1892 257.23L76.7783 260.025L238.508 175.473C240.232 174.641 241.659 172.025 241.659 169.765L246.059 43.6518L240.47 40.8571Z" fill="#FFF6DB" stroke="#010101" stroke-width="0.832367" stroke-miterlimit="10" stroke-linecap="round" stroke-linejoin="round"/>
<path d="M70.9511 124.933C70.3565 125.943 70 127.192 70 128.322V254.554C70 255.862 70.4757 256.814 71.1892 257.23L76.7783 260.024L108.054 139.976" fill="url(#paint1_linear_1795_86597)"/>
<path d="M70.9511 124.933C70.3565 125.943 70 127.192 70 128.322V254.554C70 255.862 70.4757 256.814 71.1892 257.23L76.7783 260.024L108.054 139.976" stroke="#010101" stroke-width="0.832367" stroke-miterlimit="10" stroke-linecap="round" stroke-linejoin="round"/>
<path d="M244.156 178.268L78.7997 259.966C77.0753 260.798 75.6484 259.668 75.6484 257.349V131.117C75.6484 128.858 77.0753 126.241 78.7997 125.409L244.156 43.7117C245.881 42.8793 247.308 44.009 247.308 46.3279V172.56C247.308 174.879 245.881 177.436 244.156 178.268Z" fill="white" stroke="#010101" stroke-width="0.832367" stroke-miterlimit="10"/>
<path d="M89.4174 135.439C90.7014 132.309 90.2153 129.146 88.3316 128.373C86.4479 127.6 83.8799 129.511 82.596 132.64C81.312 135.769 81.7983 138.933 83.6819 139.706C85.5656 140.478 88.1335 138.568 89.4174 135.439Z" fill="#F58A6B" stroke="#010101" stroke-width="0.832367" stroke-miterlimit="10" stroke-linecap="round" stroke-linejoin="round"/>
<path d="M102.653 128.872C103.937 125.742 103.451 122.579 101.567 121.806C99.6832 121.033 97.1154 122.944 95.8315 126.073C94.5475 129.202 95.0336 132.366 96.9173 133.139C98.801 133.911 101.369 132.001 102.653 128.872Z" fill="#FFCE49" stroke="#010101" stroke-width="0.832367" stroke-miterlimit="10" stroke-linecap="round" stroke-linejoin="round"/>
<path d="M115.866 122.36C117.15 119.231 116.664 116.067 114.78 115.294C112.896 114.522 110.328 116.432 109.044 119.561C107.761 122.691 108.247 125.854 110.13 126.627C112.014 127.4 114.582 125.49 115.866 122.36Z" fill="#62C089" stroke="#010101" stroke-width="0.832367" stroke-miterlimit="10" stroke-linecap="round" stroke-linejoin="round"/>
<path d="M91.4032 136.244C92.6871 133.114 92.2009 129.951 90.3172 129.178C88.4335 128.405 85.8656 130.316 84.5817 133.445C83.2977 136.574 83.7839 139.738 85.6676 140.511C87.5513 141.284 90.1192 139.373 91.4032 136.244Z" fill="#F58A6B" stroke="#010101" stroke-width="0.832367" stroke-miterlimit="10" stroke-linecap="round" stroke-linejoin="round"/>
<path d="M104.617 129.732C105.901 126.602 105.415 123.439 103.531 122.666C101.647 121.893 99.0792 123.804 97.7952 126.933C96.5113 130.062 96.9975 133.226 98.8812 133.999C100.765 134.771 103.333 132.861 104.617 129.732Z" fill="#FFCE49" stroke="#010101" stroke-width="0.832367" stroke-miterlimit="10" stroke-linecap="round" stroke-linejoin="round"/>
<path d="M117.852 123.165C119.136 120.035 118.65 116.872 116.766 116.099C114.882 115.326 112.314 117.236 111.03 120.366C109.746 123.495 110.233 126.659 112.116 127.432C114 128.204 116.568 126.294 117.852 123.165Z" fill="#62C089" stroke="#010101" stroke-width="0.832367" stroke-miterlimit="10" stroke-linecap="round" stroke-linejoin="round"/>
<path d="M145.93 160.133C145.93 148.954 153.303 136.17 162.459 131.592C164.184 130.76 165.849 130.224 167.395 130.046L193.319 117.084C187.551 106.143 175.897 102.576 162.4 109.295C150.151 115.419 139.389 128.619 133.205 143.484V176.187L147.892 168.873C146.643 166.554 145.93 163.641 145.93 160.133Z" fill="#F58A6B" stroke="#010101" stroke-width="0.832367" stroke-miterlimit="10" stroke-linecap="round" stroke-linejoin="round"/>
<path d="M162.459 172.143C154.611 176.068 148.07 172.619 146.346 164.473L133.265 143.424C129.757 151.808 127.735 160.727 127.735 169.17C127.735 192.003 142.421 203.359 160.794 195.214L176.076 168.814V156.446C173.162 163.284 168.108 169.349 162.459 172.143Z" fill="#62C089" stroke="#010101" stroke-width="0.832367" stroke-miterlimit="10" stroke-linecap="round" stroke-linejoin="round"/>
<path d="M193.378 117.084L167.454 130.047C174.173 129.274 179.048 134.566 179.048 143.603C179.048 149.43 177.027 155.733 173.816 161.025L160.913 195.214C161.448 194.976 161.983 194.738 162.578 194.441C181.724 184.868 197.243 158.052 197.243 134.506C197.124 127.549 195.757 121.663 193.378 117.084Z" fill="#FFD76D" stroke="#010101" stroke-width="0.832367" stroke-miterlimit="10" stroke-linecap="round" stroke-linejoin="round"/>
<path d="M172.363 156.751C176.761 147.899 175.939 138.544 170.527 135.855C165.116 133.167 157.164 138.164 152.766 147.017C148.369 155.869 149.191 165.225 154.602 167.913C160.014 170.601 167.966 165.604 172.363 156.751Z" fill="#8BB1DE" stroke="#010101" stroke-width="0.832367" stroke-miterlimit="10"/>
<path d="M328.7 51.7021C328.118 51.3692 327.368 51.3691 326.536 51.7853L140.918 143.512C139.004 144.428 137.422 147.341 137.422 149.921V275.858C137.422 277.357 137.921 278.439 138.754 278.855L144.997 282.018L326.536 187.045C328.45 186.129 330.032 183.216 330.032 180.636L334.943 54.7818L328.7 51.7021Z" fill="#FFF6DB" stroke="#010101" stroke-width="0.832367" stroke-miterlimit="10" stroke-linecap="round" stroke-linejoin="round"/>
<path d="M138.421 146.009C137.755 147.175 137.422 148.506 137.422 149.838V275.775C137.422 277.274 137.921 278.356 138.754 278.772L144.996 281.935L180.123 162.906" fill="url(#paint2_linear_1795_86597)"/>
<path d="M138.421 146.009C137.755 147.175 137.422 148.506 137.422 149.838V275.775C137.422 277.274 137.921 278.356 138.754 278.772L144.996 281.935L180.123 162.906" stroke="#010101" stroke-width="0.832367" stroke-miterlimit="10" stroke-linecap="round" stroke-linejoin="round"/>
<path d="M332.862 190.208L147.244 281.935C145.329 282.85 143.748 281.602 143.748 279.022V153.084C143.748 150.504 145.329 147.674 147.244 146.675L332.862 54.9483C334.776 54.0327 336.358 55.2813 336.358 57.8616V183.799C336.358 186.379 334.776 189.209 332.862 190.208Z" fill="white" stroke="#010101" stroke-width="0.832367" stroke-miterlimit="10"/>
<path d="M159.125 157.826C160.556 154.338 160.026 150.818 157.942 149.963C155.858 149.108 153.009 151.242 151.578 154.729C150.147 158.217 150.677 161.738 152.761 162.593C154.845 163.448 157.694 161.314 159.125 157.826Z" fill="#F58A6B" stroke="#010101" stroke-width="0.832367" stroke-miterlimit="10" stroke-linecap="round" stroke-linejoin="round"/>
<path d="M174.004 150.447C175.435 146.959 174.906 143.439 172.822 142.584C170.738 141.729 167.888 143.863 166.457 147.351C165.027 150.838 165.556 154.359 167.64 155.214C169.724 156.069 172.574 153.935 174.004 150.447Z" fill="#FFCE49" stroke="#010101" stroke-width="0.832367" stroke-miterlimit="10" stroke-linecap="round" stroke-linejoin="round"/>
<path d="M188.852 143.146C190.283 139.658 189.754 136.137 187.669 135.282C185.585 134.427 182.736 136.562 181.305 140.049C179.874 143.537 180.404 147.057 182.488 147.912C184.572 148.767 187.421 146.633 188.852 143.146Z" fill="#62C089" stroke="#010101" stroke-width="0.832367" stroke-miterlimit="10" stroke-linecap="round" stroke-linejoin="round"/>
<path d="M161.353 158.68C162.784 155.192 162.255 151.672 160.171 150.817C158.087 149.961 155.237 152.096 153.806 155.583C152.375 159.071 152.905 162.591 154.989 163.446C157.073 164.301 159.923 162.167 161.353 158.68Z" fill="#F58A6B" stroke="#010101" stroke-width="0.832367" stroke-miterlimit="10" stroke-linecap="round" stroke-linejoin="round"/>
<path d="M176.201 151.378C177.632 147.891 177.103 144.37 175.019 143.515C172.935 142.66 170.085 144.794 168.654 148.282C167.224 151.769 167.753 155.29 169.837 156.145C171.921 157 174.771 154.866 176.201 151.378Z" fill="#FFCE49" stroke="#010101" stroke-width="0.832367" stroke-miterlimit="10" stroke-linecap="round" stroke-linejoin="round"/>
<path d="M191.003 143.968C192.434 140.48 191.905 136.96 189.821 136.105C187.737 135.25 184.887 137.384 183.456 140.872C182.025 144.359 182.555 147.88 184.639 148.735C186.723 149.59 189.572 147.456 191.003 143.968Z" fill="#62C089" stroke="#010101" stroke-width="0.832367" stroke-miterlimit="10" stroke-linecap="round" stroke-linejoin="round"/>
<path d="M313.8 113.88L160.728 189.043C158.564 190.125 156.733 188.96 156.733 186.379C156.733 183.882 158.481 180.886 160.728 179.804L313.8 104.641C315.965 103.559 317.796 104.724 317.796 107.305C317.713 109.885 315.965 112.881 313.8 113.88Z" fill="#62C089" stroke="#010101" stroke-width="0.832367" stroke-miterlimit="10" stroke-linecap="round" stroke-linejoin="round"/>
<path d="M313.801 104.725L267.604 127.448V136.687L313.801 113.964C315.965 112.882 317.796 109.968 317.796 107.388C317.713 104.808 315.965 103.642 313.801 104.725Z" fill="white" stroke="#010101" stroke-width="0.832367" stroke-miterlimit="10" stroke-linecap="round" stroke-linejoin="round"/>
<path d="M163.573 204.106V205.619L158.17 208.276V206.763L163.573 204.106ZM159.744 203.205L161.346 202.417V213.491C161.346 213.995 161.412 214.341 161.543 214.529C161.679 214.709 161.851 214.791 162.059 214.774C162.272 214.75 162.496 214.681 162.731 214.565C162.907 214.478 163.052 214.397 163.165 214.321C163.279 214.24 163.369 214.175 163.437 214.127L163.763 215.57C163.654 215.669 163.502 215.789 163.308 215.93C163.113 216.076 162.867 216.223 162.568 216.37C162.116 216.592 161.672 216.702 161.238 216.699C160.808 216.693 160.45 216.539 160.165 216.235C159.885 215.929 159.744 215.439 159.744 214.763V203.205ZM170.241 212.686C169.237 213.18 168.37 213.359 167.642 213.224C166.918 213.08 166.359 212.659 165.965 211.96C165.576 211.254 165.381 210.306 165.381 209.116C165.381 207.926 165.576 206.781 165.965 205.682C166.359 204.576 166.906 203.596 167.608 202.741C168.314 201.88 169.137 201.218 170.078 200.755C170.621 200.488 171.158 200.325 171.687 200.266C172.216 200.207 172.698 200.298 173.133 200.538C173.567 200.773 173.913 201.198 174.171 201.813C174.429 202.427 174.558 203.276 174.558 204.361V205.117L166.522 209.07V207.527L172.929 204.375C172.929 203.72 172.811 203.192 172.576 202.794C172.345 202.393 172.015 202.15 171.585 202.063C171.16 201.975 170.658 202.073 170.078 202.358C169.44 202.672 168.888 203.12 168.422 203.702C167.961 204.277 167.606 204.906 167.357 205.588C167.108 206.27 166.983 206.931 166.983 207.572V208.601C166.983 209.478 167.119 210.155 167.391 210.632C167.667 211.101 168.049 211.374 168.538 211.452C169.026 211.524 169.594 211.401 170.241 211.083C170.662 210.876 171.042 210.623 171.382 210.325C171.725 210.02 172.022 209.672 172.271 209.283C172.52 208.888 172.712 208.456 172.848 207.985L174.395 207.708C174.232 208.373 173.959 209.022 173.574 209.655C173.189 210.283 172.714 210.86 172.149 211.385C171.583 211.905 170.947 212.339 170.241 212.686ZM184.38 196.474L182.941 197.636C182.85 197.413 182.717 197.219 182.54 197.053C182.368 196.881 182.133 196.785 181.834 196.765C181.536 196.746 181.153 196.851 180.687 197.08C180.049 197.394 179.517 197.819 179.092 198.356C178.671 198.886 178.461 199.4 178.461 199.899C178.461 200.343 178.606 200.622 178.895 200.737C179.185 200.852 179.637 200.844 180.253 200.712L181.8 200.375C182.732 200.169 183.427 200.213 183.884 200.507C184.341 200.797 184.57 201.348 184.57 202.159C184.57 202.825 184.398 203.505 184.054 204.198C183.714 204.89 183.239 205.537 182.628 206.14C182.018 206.743 181.307 207.244 180.497 207.642C179.434 208.165 178.554 208.341 177.857 208.169C177.16 207.997 176.719 207.463 176.533 206.566L178.054 205.395C178.198 205.949 178.472 206.283 178.875 206.398C179.282 206.51 179.814 206.405 180.47 206.082C181.217 205.715 181.809 205.247 182.248 204.678C182.692 204.102 182.913 203.564 182.913 203.065C182.913 202.661 182.787 202.386 182.533 202.238C182.28 202.085 181.891 202.07 181.366 202.192L179.628 202.593C178.674 202.81 177.972 202.765 177.524 202.455C177.081 202.139 176.859 201.58 176.859 200.778C176.859 200.123 177.024 199.461 177.355 198.795C177.689 198.126 178.144 197.506 178.719 196.936C179.298 196.364 179.954 195.897 180.687 195.537C181.719 195.029 182.529 194.883 183.117 195.098C183.71 195.311 184.131 195.769 184.38 196.474ZM191.515 190.362V191.875L186.112 194.533V193.02L191.515 190.362ZM187.687 189.462L189.289 188.674V199.748C189.289 200.252 189.354 200.598 189.485 200.785C189.621 200.966 189.793 201.048 190.001 201.031C190.214 201.007 190.438 200.937 190.673 200.821C190.85 200.735 190.995 200.653 191.108 200.578C191.221 200.497 191.311 200.432 191.379 200.384L191.705 201.827C191.596 201.926 191.445 202.046 191.25 202.187C191.056 202.333 190.809 202.479 190.51 202.626C190.058 202.849 189.614 202.958 189.18 202.955C188.75 202.95 188.393 202.795 188.108 202.492C187.827 202.186 187.687 201.695 187.687 201.02V189.462ZM193.924 200.796V189.177L195.526 188.39V200.008L193.924 200.796ZM194.739 186.84C194.427 186.994 194.157 187.008 193.931 186.882C193.71 186.754 193.599 186.524 193.599 186.191C193.599 185.858 193.71 185.519 193.931 185.173C194.157 184.824 194.427 184.573 194.739 184.42C195.051 184.266 195.318 184.254 195.54 184.381C195.766 184.507 195.879 184.736 195.879 185.069C195.879 185.402 195.766 185.743 195.54 186.091C195.318 186.437 195.051 186.687 194.739 186.84ZM200.062 190.788V197.777L198.46 198.565V186.946L200.008 186.185V188.001L200.143 187.934C200.388 187.224 200.759 186.567 201.257 185.964C201.754 185.357 202.397 184.859 203.184 184.472C203.89 184.124 204.508 183.982 205.037 184.044C205.567 184.102 205.978 184.383 206.273 184.889C206.567 185.39 206.714 186.134 206.714 187.123V194.505L205.112 195.293V188.032C205.112 187.119 204.899 186.513 204.474 186.212C204.049 185.907 203.465 185.937 202.723 186.302C202.211 186.554 201.754 186.902 201.352 187.347C200.953 187.79 200.639 188.305 200.408 188.893C200.177 189.48 200.062 190.112 200.062 190.788ZM213.849 195.595C213.075 195.975 212.41 196.192 211.854 196.243C211.297 196.3 210.833 196.241 210.462 196.066C210.096 195.893 209.804 195.658 209.587 195.362L210.863 193.736C211.007 193.876 211.191 194.028 211.412 194.191C211.634 194.36 211.937 194.45 212.322 194.462C212.711 194.478 213.22 194.331 213.849 194.021C214.691 193.608 215.385 193.039 215.933 192.316C216.48 191.593 216.754 190.747 216.754 189.779V187.419L216.618 187.486C216.501 187.755 216.333 188.1 216.116 188.519C215.903 188.932 215.596 189.358 215.193 189.798C214.795 190.231 214.256 190.614 213.578 190.948C212.736 191.362 211.98 191.512 211.311 191.397C210.645 191.281 210.118 190.894 209.729 190.239C209.344 189.581 209.152 188.647 209.152 187.436C209.152 186.246 209.34 185.118 209.715 184.05C210.091 182.978 210.614 182.035 211.283 181.222C211.953 180.403 212.727 179.778 213.605 179.346C214.283 179.013 214.822 178.874 215.22 178.93C215.623 178.979 215.931 179.11 216.143 179.323C216.36 179.529 216.528 179.704 216.645 179.848L216.808 179.768V177.922L218.356 177.161V189.112C218.356 190.11 218.152 191.022 217.745 191.848C217.342 192.676 216.799 193.405 216.116 194.033C215.437 194.665 214.682 195.185 213.849 195.595ZM213.795 189.237C214.437 188.921 214.98 188.49 215.424 187.945C215.867 187.399 216.204 186.761 216.435 186.033C216.666 185.304 216.781 184.511 216.781 183.654C216.781 182.817 216.668 182.134 216.442 181.604C216.216 181.075 215.881 180.738 215.437 180.593C214.994 180.448 214.446 180.536 213.795 180.857C213.116 181.19 212.55 181.66 212.098 182.266C211.65 182.87 211.313 183.55 211.087 184.306C210.865 185.061 210.754 185.832 210.754 186.618C210.754 187.425 210.867 188.083 211.093 188.592C211.324 189.094 211.663 189.411 212.111 189.543C212.564 189.669 213.125 189.567 213.795 189.237ZM222.456 186.884C222.121 187.049 221.833 187.056 221.594 186.907C221.354 186.758 221.234 186.496 221.234 186.123C221.234 185.75 221.354 185.371 221.594 184.986C221.833 184.6 222.121 184.325 222.456 184.161C222.79 183.996 223.078 183.988 223.318 184.138C223.557 184.287 223.677 184.548 223.677 184.921C223.677 185.168 223.621 185.423 223.508 185.686C223.399 185.946 223.252 186.185 223.066 186.402C222.885 186.612 222.682 186.773 222.456 186.884ZM227.719 184.295C227.384 184.46 227.097 184.467 226.857 184.318C226.617 184.169 226.497 183.907 226.497 183.534C226.497 183.161 226.617 182.782 226.857 182.397C227.097 182.011 227.384 181.737 227.719 181.572C228.054 181.407 228.341 181.399 228.581 181.549C228.821 181.698 228.941 181.959 228.941 182.332C228.941 182.58 228.884 182.834 228.771 183.097C228.663 183.357 228.516 183.596 228.33 183.813C228.149 184.023 227.945 184.184 227.719 184.295ZM232.983 181.706C232.648 181.871 232.361 181.878 232.121 181.729C231.881 181.58 231.761 181.319 231.761 180.945C231.761 180.572 231.881 180.193 232.121 179.808C232.361 179.423 232.648 179.148 232.983 178.983C233.318 178.818 233.605 178.811 233.845 178.96C234.085 179.109 234.205 179.37 234.205 179.744C234.205 179.991 234.148 180.245 234.035 180.508C233.926 180.768 233.779 181.007 233.594 181.224C233.413 181.434 233.209 181.595 232.983 181.706Z" fill="#010101"/>
<path d="M49.0536 263.407C46.2306 246.89 57.3117 231.258 73.7864 228.435C84.1516 226.665 94.222 230.415 100.921 237.578C104.124 233.828 108.59 231.131 113.814 230.246C122.579 228.729 131.048 232.732 135.641 239.727C138.211 237.915 141.202 236.567 144.531 236.019C156.371 233.996 167.621 241.96 169.643 253.842C169.812 254.769 169.854 255.654 169.896 256.581C170.781 256.159 171.75 255.864 172.803 255.696C178.618 254.727 184.095 258.139 185.949 263.575C187.382 262.564 189.025 261.805 190.879 261.51C195.43 260.752 199.812 262.69 202.382 266.23C203.562 263.996 205.753 262.311 208.45 261.847C213.084 261.047 217.508 264.165 218.267 268.842C219.067 273.476 215.949 277.901 211.315 278.701C208.618 279.165 206.006 278.28 204.152 276.553C202.888 280.724 199.433 284.01 194.84 284.811C192.902 285.148 190.964 284.979 189.194 284.39C188.646 289.488 184.77 293.828 179.461 294.755C175.627 295.429 171.877 294.123 169.264 291.594C167.537 293.828 165.008 295.429 162.017 295.935C158.351 296.567 154.812 295.429 152.242 293.154C149.25 299.179 143.562 303.772 136.399 304.994C130.921 305.921 125.57 304.699 121.23 301.96C117.354 311.187 109.011 318.308 98.4353 320.12C82.8875 322.774 68.0985 313.041 64.1378 298.041C61.7361 299.895 58.8287 301.243 55.6265 301.791C45.0928 303.603 35.1068 296.482 33.295 285.949C31.4411 275.204 38.5199 265.176 49.0536 263.407Z" fill="white"/>
<path d="M218.267 268.757C217.466 264.122 213.084 261.004 208.449 261.762C205.753 262.226 203.562 263.911 202.382 266.144C199.812 262.647 195.43 260.667 190.879 261.425C189.025 261.72 187.382 262.479 185.949 263.49C184.137 258.097 178.618 254.642 172.803 255.611C171.792 255.779 170.823 256.116 169.896 256.495C169.854 255.568 169.769 254.684 169.643 253.757C168.168 245.035 161.68 238.42 153.632 236.313C156.876 248.406 152.368 261.72 141.455 269.136C132.733 275.077 122.073 275.835 112.972 272.128C111.623 276.847 108.674 281.187 104.292 284.136C96.9186 289.15 87.6068 289.024 80.486 284.557C78.8849 287.296 76.736 289.74 73.9551 291.636C64.0113 298.42 50.4862 295.807 43.7025 285.863C43.1968 285.105 42.7334 284.305 42.3121 283.504C41.6801 284.262 40.9213 284.936 40.0786 285.526C38.0983 286.875 35.8652 287.549 33.6321 287.549C36.2444 297.029 45.6405 303.181 55.5422 301.495C58.7444 300.947 61.6518 299.642 64.0535 297.745C68.0141 312.745 82.8036 322.478 98.3513 319.824C108.927 318.012 117.27 310.891 121.146 301.664C125.528 304.403 130.837 305.625 136.315 304.698C143.435 303.476 149.166 298.883 152.157 292.858C154.727 295.133 158.267 296.271 161.932 295.639C164.924 295.133 167.452 293.532 169.18 291.299C171.792 293.827 175.5 295.133 179.376 294.459C184.685 293.532 188.562 289.234 189.109 284.094C190.879 284.684 192.817 284.852 194.756 284.515C199.306 283.757 202.803 280.428 204.067 276.257C205.921 277.984 208.534 278.827 211.23 278.405C215.907 277.816 219.025 273.392 218.267 268.757Z" fill="#EFF8F5"/>
<path d="M118.239 288.645C118.239 275.752 107.79 265.303 94.9386 265.303C90.0931 265.303 85.6271 266.777 81.9192 269.306" stroke="black" stroke-width="0.421348" stroke-miterlimit="10" stroke-linecap="round" stroke-linejoin="round"/>
<path d="M171.371 280.428C170.065 274.614 164.292 270.948 158.478 272.254C156.287 272.76 154.433 273.855 153 275.372" stroke="black" stroke-width="0.421348" stroke-miterlimit="10" stroke-linecap="round" stroke-linejoin="round"/>
<path d="M89.9667 265.555C89.2083 262.185 85.8795 260.078 82.5087 260.836C81.2447 261.131 80.1492 261.763 79.3486 262.648" stroke="black" stroke-width="0.421348" stroke-miterlimit="10" stroke-linecap="round" stroke-linejoin="round"/>
<path d="M49.0536 263.407C46.2306 246.89 57.3117 231.258 73.7864 228.435C84.1516 226.665 94.222 230.415 100.921 237.578C104.124 233.828 108.59 231.131 113.814 230.246C122.579 228.729 131.048 232.732 135.641 239.727C138.211 237.915 141.202 236.567 144.531 236.019C156.371 233.996 167.621 241.96 169.643 253.842C169.812 254.769 169.854 255.654 169.896 256.581C170.781 256.159 171.75 255.864 172.803 255.696C178.618 254.727 184.095 258.139 185.949 263.575C187.382 262.564 189.025 261.805 190.879 261.51C195.43 260.752 199.812 262.69 202.382 266.23C203.562 263.996 205.753 262.311 208.45 261.847C213.084 261.047 217.508 264.165 218.267 268.842C219.067 273.476 215.949 277.901 211.315 278.701C208.618 279.165 206.006 278.28 204.152 276.553C202.888 280.724 199.433 284.01 194.84 284.811C192.902 285.148 190.964 284.979 189.194 284.39C188.646 289.488 184.77 293.828 179.461 294.755C175.627 295.429 171.877 294.123 169.264 291.594C167.537 293.828 165.008 295.429 162.017 295.935C158.351 296.567 154.812 295.429 152.242 293.154C149.25 299.179 143.562 303.772 136.399 304.994C130.921 305.921 125.57 304.699 121.23 301.96C117.354 311.187 109.011 318.308 98.4353 320.12C82.8875 322.774 68.0985 313.041 64.1378 298.041C61.7361 299.895 58.8287 301.243 55.6265 301.791C45.0928 303.603 35.1068 296.482 33.295 285.949C31.4411 275.204 38.5199 265.176 49.0536 263.407Z" stroke="black" stroke-width="0.421348" stroke-miterlimit="10" stroke-linecap="round" stroke-linejoin="round"/>
<path d="M138.754 103.735C162.475 103.735 181.704 90.5057 181.704 74.1862C181.704 57.8668 162.475 44.6372 138.754 44.6372C115.033 44.6372 95.8032 57.8668 95.8032 74.1862C95.8032 90.5057 115.033 103.735 138.754 103.735Z" fill="#FFCE49" stroke="#010101" stroke-width="0.832367" stroke-miterlimit="10" stroke-linecap="round" stroke-linejoin="round"/>
<path d="M138.754 98.0751C162.475 98.0751 181.704 84.8456 181.704 68.5261C181.704 52.2066 162.475 38.9771 138.754 38.9771C115.033 38.9771 95.8032 52.2066 95.8032 68.5261C95.8032 84.8456 115.033 98.0751 138.754 98.0751Z" fill="url(#paint3_linear_1795_86597)" stroke="#010101" stroke-width="0.832367" stroke-miterlimit="10" stroke-linecap="round" stroke-linejoin="round"/>
<path d="M155.9 75.3516C155.9 78.5146 154.069 81.3446 151.073 83.3423C149.907 84.0914 148.575 84.8405 147.16 85.34C146.994 85.4232 146.827 85.5064 146.578 85.5064C144.746 86.0891 142.749 86.5053 140.668 86.5885C140.252 86.5885 139.836 86.5885 139.42 86.5885H138.004C137.588 86.5885 137.172 86.5885 136.756 86.5885C134.675 86.5053 132.678 86.0891 130.846 85.5064C130.68 85.4232 130.513 85.34 130.264 85.34C125.103 83.4255 121.524 79.6799 121.524 75.3516H155.9Z" fill="#010101" stroke="#010101" stroke-width="0.832367" stroke-miterlimit="10" stroke-linecap="round" stroke-linejoin="round"/>
<path d="M122.855 68.6094C126.027 68.6094 128.599 66.8205 128.599 64.614C128.599 62.4074 126.027 60.6187 122.855 60.6187C119.683 60.6187 117.113 62.4074 117.113 64.614C117.113 66.8205 119.683 68.6094 122.855 68.6094Z" fill="#010101" stroke="#010101" stroke-width="0.832367" stroke-miterlimit="10" stroke-linecap="round" stroke-linejoin="round"/>
<path d="M154.652 68.6094C157.824 68.6094 160.395 66.8205 160.395 64.614C160.395 62.4074 157.824 60.6187 154.652 60.6187C151.48 60.6187 148.909 62.4074 148.909 64.614C148.909 66.8205 151.48 68.6094 154.652 68.6094Z" fill="#010101" stroke="#010101" stroke-width="0.832367" stroke-miterlimit="10" stroke-linecap="round" stroke-linejoin="round"/>
<path d="M239.85 297.291C257.06 278.957 261.393 255.067 249.528 243.929C237.662 232.791 214.093 238.625 196.883 256.958C179.674 275.292 175.341 299.184 187.206 310.321C199.071 321.459 222.641 315.625 239.85 297.291Z" fill="#FFCE49" stroke="#010101" stroke-width="0.832367" stroke-miterlimit="10" stroke-linecap="round" stroke-linejoin="round"/>
<path d="M247.395 277.443C257.633 256.051 251.223 237.156 233.078 235.242C214.849 233.244 191.792 248.976 181.554 270.368C171.316 291.76 177.725 310.654 195.871 312.569C214.016 314.483 237.073 298.835 247.395 277.443Z" fill="url(#paint4_linear_1795_86597)" stroke="#010101" stroke-width="0.832367" stroke-miterlimit="10" stroke-linecap="round" stroke-linejoin="round"/>
<path d="M207.251 269.831C209.548 267.384 210.133 264.201 208.558 262.722C206.982 261.244 203.843 262.029 201.546 264.476C199.25 266.922 198.665 270.104 200.24 271.583C201.816 273.062 204.954 272.277 207.251 269.831Z" fill="#010101" stroke="#010101" stroke-width="0.832367" stroke-miterlimit="10" stroke-linecap="round" stroke-linejoin="round"/>
<path d="M231.6 272.419C233.897 269.972 234.481 266.79 232.906 265.311C231.331 263.833 228.192 264.617 225.895 267.064C223.599 269.511 223.013 272.693 224.589 274.172C226.164 275.651 229.303 274.866 231.6 272.419Z" fill="#010101" stroke="#010101" stroke-width="0.832367" stroke-miterlimit="10" stroke-linecap="round" stroke-linejoin="round"/>
<path d="M222.09 286.682C220.092 290.761 216.929 294.34 213.35 296.754C211.935 297.669 210.52 298.502 209.105 299.001C208.939 299.084 208.772 299.168 208.522 299.168C206.774 299.833 204.943 300.166 203.279 300.083C202.946 300.083 202.613 300.083 202.28 300L201.198 299.917C200.865 299.917 200.531 299.834 200.282 299.75C198.7 299.417 197.452 298.751 196.453 297.836C196.37 297.753 196.286 297.669 196.12 297.503C193.373 294.59 192.957 289.346 195.704 283.686L222.09 286.682Z" fill="#010101" stroke="#010101" stroke-width="0.832367" stroke-miterlimit="10" stroke-linecap="round" stroke-linejoin="round"/>
<path d="M216.68 258.464C211.602 257.882 207.107 262.543 207.107 262.543C207.107 262.543 207.274 257.466 202.196 256.883C197.119 256.3 190.96 268.453 200.032 277.193C216.18 271.116 221.757 258.964 216.68 258.464Z" fill="#F58A6B" stroke="#010101" stroke-width="0.951063" stroke-miterlimit="10" stroke-linecap="round" stroke-linejoin="round"/>
<path d="M241.651 261.128C236.573 260.545 232.078 265.207 232.078 265.207C232.078 265.207 232.245 260.129 227.167 259.547C222.09 258.964 215.93 271.116 225.003 279.856C241.151 273.863 246.728 261.711 241.651 261.128Z" fill="#F58A6B" stroke="#010101" stroke-width="0.951063" stroke-miterlimit="10" stroke-linecap="round" stroke-linejoin="round"/>
<path d="M346.893 65.791C346.175 60.2862 346.534 34.9162 346.055 31.4457C346.055 31.4457 342.465 29.5309 339.114 28.3342C335.883 27.1375 333.37 26.4195 330.856 27.4966C325.591 29.89 311.59 36.2325 311.59 36.2325L313.983 52.7469L301.418 58.4912L299.264 41.857L311.471 36.3522L317.215 22.231L309.197 19C309.197 19 291.007 27.2572 286.699 29.172C282.391 31.0867 279.997 34.5571 280.715 40.0619C281.433 45.5668 284.665 68.4237 285.143 71.8942C285.383 73.4499 286.699 75.4844 288.733 77.0401C291.007 78.7154 299.862 82.3055 301.418 82.1858C307.162 81.3481 316.137 69.6204 316.137 69.6204L316.616 60.7649L326.908 51.6699L328.583 64.1156L316.377 69.6204L318.651 86.853L326.668 90.0842C332.412 87.4514 338.276 77.9974 341.028 76.681C345.217 74.7663 347.611 71.2959 346.893 65.791Z" fill="#DFEDE8" stroke="#010101" stroke-width="0.832367" stroke-miterlimit="10" stroke-linecap="round" stroke-linejoin="round"/>
<path d="M338.995 30.8469C333.73 33.2403 319.728 39.5828 319.728 39.5828L322.002 56.217L334.328 50.5925L336.481 67.2266L324.275 72.7315L326.549 89.9639C326.549 89.9639 344.739 81.7067 349.047 79.7919C353.355 77.8772 355.748 74.4068 355.03 68.902C354.312 63.3971 351.081 40.5402 350.602 37.0697C350.124 33.8386 344.261 28.3338 338.995 30.8469Z" fill="#62C089" stroke="#010101" stroke-width="0.832367" stroke-miterlimit="10" stroke-linecap="round" stroke-linejoin="round"/>
<path d="M304.768 81.5867C310.034 79.1933 324.036 72.8509 324.036 72.8509L321.762 56.2167L309.436 61.8411L307.282 45.2071L319.488 39.7021L317.094 22.4697C317.094 22.4697 298.905 30.727 294.597 32.6417C290.288 34.5564 287.895 38.0268 288.613 43.5317C289.331 49.0365 292.562 71.8935 293.041 75.3639C293.52 78.8344 299.503 83.9801 304.768 81.5867Z" fill="#62C089" stroke="#010101" stroke-width="0.832367" stroke-miterlimit="10" stroke-linecap="round" stroke-linejoin="round"/>
<path d="M261.682 200.846C261.682 189.891 270.531 181 281.486 181C288.396 181 294.463 184.54 298.003 189.891C300.489 187.826 303.649 186.562 307.104 186.562C312.918 186.562 317.933 190.059 320.124 195.073C321.978 194.188 324.084 193.64 326.275 193.64C334.154 193.64 340.517 200.045 340.517 207.924C340.517 215.34 334.871 221.408 327.666 222.124C327.666 222.377 327.708 222.629 327.708 222.882C327.708 230.761 321.346 237.166 313.466 237.166C309.843 237.166 306.514 235.775 303.986 233.542C300.489 239.062 294.295 242.728 287.3 242.728C276.977 242.728 268.508 234.806 267.581 224.694C265.812 225.621 263.789 226.169 261.682 226.169C254.688 226.169 249 220.481 249 213.486C249 206.492 254.688 200.846 261.682 200.846Z" fill="white"/>
<path d="M340.517 207.966C340.517 200.087 334.154 193.682 326.275 193.682C324.084 193.682 321.977 194.188 320.123 195.115C318.438 191.28 315.11 188.331 311.023 187.151C311.907 189.005 312.413 191.112 312.413 193.345C312.413 200.761 306.767 206.828 299.562 207.544C299.562 207.797 299.604 208.05 299.604 208.303C299.604 216.182 293.241 222.587 285.362 222.587C281.739 222.587 278.41 221.196 275.882 218.963C273.902 222.081 271.079 224.609 267.75 226.21C269.309 235.606 277.441 242.811 287.258 242.811C294.295 242.811 300.446 239.146 303.944 233.626C306.472 235.859 309.758 237.249 313.424 237.249C321.303 237.249 327.666 230.845 327.666 222.966C327.666 222.713 327.623 222.46 327.623 222.208C334.871 221.449 340.517 215.339 340.517 207.966Z" fill="#EFF8F5"/>
<path d="M261.682 200.846C261.682 189.891 270.531 181 281.486 181C288.396 181 294.463 184.54 298.003 189.891C300.489 187.826 303.649 186.562 307.104 186.562C312.918 186.562 317.933 190.059 320.124 195.073C321.978 194.188 324.084 193.64 326.275 193.64C334.154 193.64 340.517 200.045 340.517 207.924C340.517 215.34 334.871 221.408 327.666 222.124C327.666 222.377 327.708 222.629 327.708 222.882C327.708 230.761 321.346 237.166 313.466 237.166C309.843 237.166 306.514 235.775 303.986 233.542C300.489 239.062 294.295 242.728 287.3 242.728C276.977 242.728 268.508 234.806 267.581 224.694C265.812 225.621 263.789 226.169 261.682 226.169C254.688 226.169 249 220.481 249 213.486C249 206.492 254.688 200.846 261.682 200.846Z" stroke="black" stroke-width="0.421348" stroke-miterlimit="10" stroke-linecap="round" stroke-linejoin="round"/>
<defs>
<linearGradient id="paint0_linear_1795_86597" x1="329.539" y1="177.633" x2="407.555" y2="177.633" gradientUnits="userSpaceOnUse">
<stop stop-color="#FFCE49"/>
<stop offset="1" stop-color="#FFEAB5"/>
</linearGradient>
<linearGradient id="paint1_linear_1795_86597" x1="89.0698" y1="124.946" x2="89.0698" y2="260.043" gradientUnits="userSpaceOnUse">
<stop offset="0.1983" stop-color="#FFF6DB"/>
<stop offset="1" stop-color="#A1A7A7"/>
</linearGradient>
<linearGradient id="paint2_linear_1795_86597" x1="158.747" y1="146.05" x2="158.747" y2="281.972" gradientUnits="userSpaceOnUse">
<stop offset="0.1983" stop-color="#FFF6DB"/>
<stop offset="1" stop-color="#A1A7A7"/>
</linearGradient>
<linearGradient id="paint3_linear_1795_86597" x1="95.8314" y1="68.5251" x2="181.671" y2="68.5251" gradientUnits="userSpaceOnUse">
<stop stop-color="#FFCE49"/>
<stop offset="1" stop-color="#FFEAB5"/>
</linearGradient>
<linearGradient id="paint4_linear_1795_86597" x1="176.581" y1="273.891" x2="252.278" y2="273.891" gradientUnits="userSpaceOnUse">
<stop stop-color="#FFCE49"/>
<stop offset="1" stop-color="#FFEAB5"/>
</linearGradient>
</defs>
</svg>
